<?xml version="1.0" encoding="iso-8859-1"?>
<!-- Generator: Adobe Illustrator 17.1.0, SVG Export Plug-In . SVG Version: 6.00 Build 0)  -->
<!DOCTYPE svg PUBLIC "-//W3C//DTD SVG 1.0//EN" "http://www.w3.org/TR/2001/REC-SVG-20010904/DTD/svg10.dtd">
<svg version="1.0" xmlns="http://www.w3.org/2000/svg" xmlns:xlink="http://www.w3.org/1999/xlink" x="0px" y="0px" width="110px"
	 height="110px" viewBox="0 0 110 110" style="enable-background:new 0 0 110 110;" xml:space="preserve">
<g id="Artboard" style="display:none;">
	
		<rect x="-72.5" y="-546.5" style="display:inline;fill:#808080;stroke:#000000;stroke-miterlimit:10;" width="1392" height="1369"/>
</g>
<g id="R-Multicolor" style="display:none;">
	<circle style="display:inline;fill:#FABC3D;" cx="55" cy="55" r="55"/>
	<g style="display:inline;">
		<g>
			<path style="fill:#9C6144;" d="M55,36.812c0.688-0.003,1.296-0.083,1.866-0.209L58,23h-6.564l1.122,13.458
				C53.29,36.672,54.076,36.807,55,36.812z"/>
		</g>
		<g>
			<path style="fill:#099686;" d="M71,33c2.848,0,5.689,0.735,8.177,2.26c1.594-5.598,0.376-11.813,0.376-11.813
				s-11.638-2.286-17.405,3.481c-2.969,2.969-4.812,6.473-5.388,9.7C60.406,35.871,62.288,33,71,33z"/>
		</g>
		<g>
			<path style="fill:#DF2C2C;" d="M71,33c-10,0-11,3.786-16,3.812C50,36.786,49,33,39,33c-8,0-16,5.679-16,18.929
				C23,63.286,36,86,44,86s7-3.786,11-3.786S58,86,66,86s21-22.714,21-34.071C87,38.679,79,33,71,33z"/>
		</g>
		<g>
			<path style="fill:#12B2A0;" d="M79.553,23.447c0,0-11.638-2.286-17.405,3.481c-2.969,2.969-4.812,6.473-5.388,9.7
				c3.53-0.733,5.427-3.441,13.451-3.612l9.377-9.377C79.567,23.524,79.553,23.447,79.553,23.447z"/>
		</g>
		<g>
			<path style="fill:#FA5655;" d="M39,33c-8,0-16,5.679-16,18.929C23,63.286,36,86,44,86s7-3.786,11-3.786V36.812
				C50,36.786,49,33,39,33z"/>
		</g>
	</g>
</g>
<g id="Multicolor">
	<g>
		<g>
			<path style="fill:#9C6144;" d="M55,36.812c0.688-0.003,1.296-0.083,1.866-0.209L58,23h-6.564l1.122,13.458
				C53.29,36.672,54.076,36.807,55,36.812z"/>
		</g>
		<g>
			<path style="fill:#099686;" d="M71,33c2.848,0,5.689,0.735,8.177,2.26c1.594-5.598,0.376-11.813,0.376-11.813
				s-11.638-2.286-17.405,3.481c-2.969,2.969-4.812,6.473-5.388,9.7C60.406,35.871,62.288,33,71,33z"/>
		</g>
		<g>
			<path style="fill:#DF2C2C;" d="M71,33c-10,0-11,3.786-16,3.812C50,36.786,49,33,39,33c-8,0-16,5.679-16,18.929
				C23,63.286,36,86,44,86s7-3.786,11-3.786S58,86,66,86s21-22.714,21-34.071C87,38.679,79,33,71,33z"/>
		</g>
		<g>
			<path style="fill:#12B2A0;" d="M79.553,23.447c0,0-11.638-2.286-17.405,3.481c-2.969,2.969-4.812,6.473-5.388,9.7
				c3.53-0.733,5.427-3.441,13.451-3.612l9.377-9.377C79.567,23.524,79.553,23.447,79.553,23.447z"/>
		</g>
		<g>
			<path style="fill:#FA5655;" d="M39,33c-8,0-16,5.679-16,18.929C23,63.286,36,86,44,86s7-3.786,11-3.786V36.812
				C50,36.786,49,33,39,33z"/>
		</g>
	</g>
</g>
<g id="Blue" style="display:none;">
	<g style="display:inline;">
		<g>
			<path style="fill:#0C333D;" d="M55,36.812c0.688-0.003,1.296-0.083,1.867-0.209L58,23h-6.564l1.122,13.458
				C53.291,36.672,54.076,36.807,55,36.812z"/>
		</g>
		<g>
			<path style="fill:#BBE7F2;" d="M71,33c2.848,0,5.689,0.735,8.176,2.26c1.595-5.598,0.377-11.813,0.377-11.813
				s-11.639-2.286-17.405,3.481c-2.969,2.969-4.812,6.473-5.388,9.7C60.406,35.872,62.288,33,71,33z"/>
		</g>
		<g>
			<path style="fill:#0081A1;" d="M71,33c-10,0-11,3.786-16,3.812C50,36.786,49,33,39,33c-8,0-16,5.679-16,18.929
				C23,63.286,36,86,44,86s7-3.786,11-3.786S58,86,66,86s21-22.714,21-34.071C87,38.679,79,33,71,33z"/>
		</g>
		<g>
			<path style="fill:#E1F5FA;" d="M79.553,23.447c0,0-11.639-2.286-17.405,3.481c-2.969,2.969-4.812,6.473-5.388,9.7
				c3.53-0.733,5.427-3.441,13.451-3.612l9.377-9.377C79.566,23.524,79.553,23.447,79.553,23.447z"/>
		</g>
		<g>
			<path style="fill:#009FC7;" d="M39,33c-8,0-16,5.679-16,18.929C23,63.286,36,86,44,86s7-3.786,11-3.786V36.812
				C50,36.786,49,33,39,33z"/>
		</g>
	</g>
</g>
<g id="R-Blue" style="display:none;">
	<circle style="display:inline;fill:#81D2EB;" cx="55" cy="55" r="55"/>
	<g style="display:inline;">
		<g>
			<path style="fill:#0C333D;" d="M55,36.811c0.688-0.003,1.296-0.083,1.867-0.209L58,23h-6.564l1.122,13.458
				C53.291,36.672,54.076,36.807,55,36.811z"/>
		</g>
		<g>
			<path style="fill:#BBE7F2;" d="M71,33c2.848,0,5.689,0.735,8.176,2.26c1.595-5.598,0.377-11.813,0.377-11.813
				s-11.639-2.286-17.405,3.481c-2.969,2.969-4.812,6.473-5.388,9.7C60.406,35.872,62.288,33,71,33z"/>
		</g>
		<g>
			<path style="fill:#0081A1;" d="M71,33c-10,0-11,3.786-16,3.812C50,36.786,49,33,39,33c-8,0-16,5.679-16,18.929
				C23,63.286,36,86,44,86s7-3.786,11-3.786S58,86,66,86s21-22.714,21-34.071C87,38.679,79,33,71,33z"/>
		</g>
		<g>
			<path style="fill:#E1F5FA;" d="M79.553,23.447c0,0-11.639-2.286-17.405,3.481c-2.969,2.969-4.812,6.473-5.388,9.7
				c3.53-0.733,5.427-3.441,13.451-3.612l9.377-9.377C79.566,23.524,79.553,23.447,79.553,23.447z"/>
		</g>
		<g>
			<path style="fill:#009FC7;" d="M39,33c-8,0-16,5.679-16,18.929C23,63.286,36,86,44,86s7-3.786,11-3.786V36.811
				C50,36.786,49,33,39,33z"/>
		</g>
	</g>
</g>
<g id="Green" style="display:none;">
	<g style="display:inline;">
		<g>
			<path style="fill:#0A3631;" d="M55,36.812c0.688-0.003,1.296-0.083,1.867-0.209L58,23h-6.564l1.122,13.458
				C53.291,36.672,54.076,36.807,55,36.812z"/>
		</g>
		<g>
			<path style="fill:#AAF0E9;" d="M71,33c2.848,0,5.689,0.735,8.176,2.26c1.595-5.598,0.377-11.813,0.377-11.813
				s-11.639-2.286-17.405,3.481c-2.969,2.969-4.812,6.473-5.388,9.7C60.406,35.872,62.288,33,71,33z"/>
		</g>
		<g>
			<path style="fill:#009687;" d="M71,33c-10,0-11,3.786-16,3.812C50,36.786,49,33,39,33c-8,0-16,5.679-16,18.929
				C23,63.286,36,86,44,86s7-3.786,11-3.786S58,86,66,86s21-22.714,21-34.071C87,38.679,79,33,71,33z"/>
		</g>
		<g>
			<path style="fill:#D7FCF9;" d="M79.553,23.447c0,0-11.639-2.286-17.405,3.481c-2.969,2.969-4.812,6.473-5.388,9.7
				c3.53-0.733,5.427-3.441,13.451-3.612l9.377-9.377C79.566,23.524,79.553,23.447,79.553,23.447z"/>
		</g>
		<g>
			<path style="fill:#00B8A5;" d="M39,33c-8,0-16,5.679-16,18.929C23,63.286,36,86,44,86s7-3.786,11-3.786V36.812
				C50,36.786,49,33,39,33z"/>
		</g>
	</g>
</g>
<g id="R-Green" style="display:none;">
	<circle style="display:inline;fill:#77E0C4;" cx="55" cy="55" r="55"/>
	<g style="display:inline;">
		<g>
			<path style="fill:#0A3631;" d="M55,36.812c0.688-0.003,1.296-0.083,1.867-0.209L58,23h-6.564l1.122,13.458
				C53.291,36.672,54.076,36.807,55,36.812z"/>
		</g>
		<g>
			<path style="fill:#AAF0E9;" d="M71,33c2.848,0,5.689,0.735,8.176,2.26c1.595-5.598,0.377-11.813,0.377-11.813
				s-11.639-2.286-17.405,3.481c-2.969,2.969-4.812,6.473-5.388,9.7C60.406,35.872,62.288,33,71,33z"/>
		</g>
		<g>
			<path style="fill:#009687;" d="M71,33c-10,0-11,3.786-16,3.812C50,36.786,49,33,39,33c-8,0-16,5.679-16,18.929
				C23,63.286,36,86,44,86s7-3.786,11-3.786S58,86,66,86s21-22.714,21-34.071C87,38.679,79,33,71,33z"/>
		</g>
		<g>
			<path style="fill:#D7FCF9;" d="M79.553,23.447c0,0-11.639-2.286-17.405,3.481c-2.969,2.969-4.812,6.473-5.388,9.7
				c3.53-0.733,5.427-3.441,13.451-3.612l9.377-9.377C79.566,23.524,79.553,23.447,79.553,23.447z"/>
		</g>
		<g>
			<path style="fill:#00B8A5;" d="M39,33c-8,0-16,5.679-16,18.929C23,63.286,36,86,44,86s7-3.786,11-3.786V36.812
				C50,36.786,49,33,39,33z"/>
		</g>
	</g>
</g>
<g id="Red" style="display:none;">
	<g style="display:inline;">
		<g>
			<path style="fill:#4A1410;" d="M55,36.812c0.688-0.003,1.296-0.083,1.867-0.209L58,23h-6.564l1.122,13.458
				C53.291,36.672,54.076,36.807,55,36.812z"/>
		</g>
		<g>
			<path style="fill:#FFD7D4;" d="M71,33c2.848,0,5.689,0.735,8.176,2.26c1.595-5.598,0.377-11.813,0.377-11.813
				s-11.639-2.286-17.405,3.481c-2.969,2.969-4.812,6.473-5.388,9.7C60.406,35.872,62.288,33,71,33z"/>
		</g>
		<g>
			<path style="fill:#C23023;" d="M71,33c-10,0-11,3.786-16,3.812C50,36.786,49,33,39,33c-8,0-16,5.679-16,18.929
				C23,63.286,36,86,44,86s7-3.786,11-3.786S58,86,66,86s21-22.714,21-34.071C87,38.679,79,33,71,33z"/>
		</g>
		<g>
			<path style="fill:#FFEFED;" d="M79.553,23.447c0,0-11.639-2.286-17.405,3.481c-2.969,2.969-4.812,6.473-5.388,9.7
				c3.53-0.733,5.427-3.441,13.451-3.612l9.377-9.377C79.566,23.524,79.553,23.447,79.553,23.447z"/>
		</g>
		<g>
			<path style="fill:#E54B44;" d="M39,33c-8,0-16,5.679-16,18.929C23,63.286,36,86,44,86s7-3.786,11-3.786V36.812
				C50,36.786,49,33,39,33z"/>
		</g>
	</g>
</g>
<g id="R-Red" style="display:none;">
	<circle style="display:inline;fill:#FABBAF;" cx="55" cy="55" r="55"/>
	<g style="display:inline;">
		<g>
			<path style="fill:#4A1410;" d="M55,36.812c0.688-0.003,1.296-0.083,1.867-0.209L58,23h-6.564l1.122,13.458
				C53.291,36.672,54.076,36.807,55,36.812z"/>
		</g>
		<g>
			<path style="fill:#FFD7D4;" d="M71,33c2.848,0,5.689,0.735,8.176,2.26c1.595-5.598,0.377-11.813,0.377-11.813
				s-11.639-2.286-17.405,3.481c-2.969,2.969-4.812,6.473-5.388,9.7C60.406,35.872,62.288,33,71,33z"/>
		</g>
		<g>
			<path style="fill:#C23023;" d="M71,33c-10,0-11,3.786-16,3.812C50,36.786,49,33,39,33c-8,0-16,5.679-16,18.929
				C23,63.286,36,86,44,86s7-3.786,11-3.786S58,86,66,86s21-22.714,21-34.071C87,38.679,79,33,71,33z"/>
		</g>
		<g>
			<path style="fill:#FFEFED;" d="M79.553,23.447c0,0-11.639-2.286-17.405,3.481c-2.969,2.969-4.812,6.473-5.388,9.7
				c3.53-0.733,5.427-3.441,13.451-3.612l9.377-9.377C79.566,23.524,79.553,23.447,79.553,23.447z"/>
		</g>
		<g>
			<path style="fill:#E54B44;" d="M39,33c-8,0-16,5.679-16,18.929C23,63.286,36,86,44,86s7-3.786,11-3.786V36.812
				C50,36.786,49,33,39,33z"/>
		</g>
	</g>
</g>
<g id="Yellow" style="display:none;">
	<g style="display:inline;">
		<g>
			<path style="fill:#3D320C;" d="M55,36.812c0.688-0.003,1.296-0.083,1.867-0.209L58,23h-6.564l1.122,13.458
				C53.291,36.672,54.076,36.807,55,36.812z"/>
		</g>
		<g>
			<path style="fill:#FFE9A1;" d="M71,33c2.848,0,5.689,0.735,8.176,2.26c1.595-5.598,0.377-11.813,0.377-11.813
				s-11.639-2.286-17.405,3.481c-2.969,2.969-4.812,6.473-5.388,9.7C60.406,35.872,62.288,33,71,33z"/>
		</g>
		<g>
			<path style="fill:#E07000;" d="M71,33c-10,0-11,3.786-16,3.812C50,36.786,49,33,39,33c-8,0-16,5.679-16,18.929
				C23,63.286,36,86,44,86s7-3.786,11-3.786S58,86,66,86s21-22.714,21-34.071C87,38.679,79,33,71,33z"/>
		</g>
		<g>
			<path style="fill:#FFF5D9;" d="M79.553,23.447c0,0-11.639-2.286-17.405,3.481c-2.969,2.969-4.812,6.473-5.388,9.7
				c3.53-0.733,5.427-3.441,13.451-3.612l9.377-9.377C79.566,23.524,79.553,23.447,79.553,23.447z"/>
		</g>
		<g>
			<path style="fill:#FA9200;" d="M39,33c-8,0-16,5.679-16,18.929C23,63.286,36,86,44,86s7-3.786,11-3.786V36.812
				C50,36.786,49,33,39,33z"/>
		</g>
	</g>
</g>
<g id="R-Yellow" style="display:none;">
	<circle style="display:inline;fill:#FFD75E;" cx="55" cy="55" r="55"/>
	<g style="display:inline;">
		<g>
			<path style="fill:#3D320C;" d="M55,36.812c0.688-0.003,1.296-0.083,1.867-0.209L58,23h-6.564l1.122,13.458
				C53.291,36.672,54.076,36.807,55,36.812z"/>
		</g>
		<g>
			<path style="fill:#FFE9A1;" d="M71,33c2.848,0,5.689,0.735,8.176,2.26c1.595-5.598,0.377-11.813,0.377-11.813
				s-11.639-2.286-17.405,3.481c-2.969,2.969-4.812,6.473-5.388,9.7C60.406,35.872,62.288,33,71,33z"/>
		</g>
		<g>
			<path style="fill:#E07000;" d="M71,33c-10,0-11,3.786-16,3.812C50,36.786,49,33,39,33c-8,0-16,5.679-16,18.929
				C23,63.286,36,86,44,86s7-3.786,11-3.786S58,86,66,86s21-22.714,21-34.071C87,38.679,79,33,71,33z"/>
		</g>
		<g>
			<path style="fill:#FFF5D9;" d="M79.553,23.447c0,0-11.639-2.286-17.405,3.481c-2.969,2.969-4.812,6.473-5.388,9.7
				c3.53-0.733,5.427-3.441,13.451-3.612l9.377-9.377C79.566,23.524,79.553,23.447,79.553,23.447z"/>
		</g>
		<g>
			<path style="fill:#FA9200;" d="M39,33c-8,0-16,5.679-16,18.929C23,63.286,36,86,44,86s7-3.786,11-3.786V36.812
				C50,36.786,49,33,39,33z"/>
		</g>
	</g>
</g>
</svg>
