<?xml version="1.0" encoding="UTF-8" standalone="no"?>
<svg width="240px" height="81px" viewBox="0 0 240 81" version="1.1" xmlns="http://www.w3.org/2000/svg" xmlns:xlink="http://www.w3.org/1999/xlink" xmlns:sketch="http://www.bohemiancoding.com/sketch/ns">
    <!-- Generator: Sketch 3.2.2 (9983) - http://www.bohemiancoding.com/sketch -->
    <title>beer</title>
    <desc>Created with Sketch.</desc>
    <defs></defs>
    <g id="Page-1" stroke="none" stroke-width="1" fill="none" fill-rule="evenodd" sketch:type="MSPage">
        <g id="tea" sketch:type="MSLayerGroup" transform="translate(0.000000, -12.000000)">
            <g id="Main" sketch:type="MSShapeGroup">
                <g id="Profile-6">
                    <g id="Tile-8">
                        <g id="tea">
                            <g id="Group-4" fill="#FA5655">
                                <rect id="Rectangle-264" x="0" y="0" width="240" height="120"></rect>
                            </g>
                            <rect id="Rectangle-346" fill="#DF2C2C" x="0" y="86" width="240" height="34"></rect>
                        </g>
                    </g>
                </g>
            </g>
        </g>
        <g id="Fill-3311-+-Fill-3312-+-Fill-3313" sketch:type="MSLayerGroup" transform="translate(91.000000, 12.000000)">
            <path d="M41.2766,61.0127 C41.1246,62.6557 39.6496,63.9997 37.9996,63.9997 L17.9996,63.9997 C16.3496,63.9997 14.8756,62.6557 14.7236,61.0127 L9.9996,9.9997 L45.9996,9.9997 L41.2766,61.0127 Z" id="Fill-3311" fill="#FACB1B" sketch:type="MSShapeGroup"></path>
            <path d="M18,64 L28,64 L28,10 L10,10 L14.724,61.013 C14.875,62.656 16.35,64 18,64" id="Fill-3312" fill="#FBE158" sketch:type="MSShapeGroup"></path>
            <path d="M50,8 C50,10.21 48.21,12 46,12 C23,12 33,20.98 25,20.98 L25,21 C25,23.76 22.76,26 20,26 C18.344,26 17.047,25.187 16.69,24.74 C15.98,26.64 14.15,28 12,28 C8.861,28 7.04,25.217 7.04,23.57 C6.489,23.822 5.747,24 5,24 C2.333,24 0.1,22.35 0.1,17.99 C1.11,7.88 9.63,0 20,0 C31,0 30.344,4 46,4 C48.21,4 50,5.79 50,8" id="Fill-3313" fill="#FFFFFF" sketch:type="MSShapeGroup"></path>
        </g>
    </g>
</svg>