<?xml version="1.0" encoding="UTF-8" standalone="no"?>
<svg width="240px" height="81px" viewBox="0 0 240 81" version="1.1" xmlns="http://www.w3.org/2000/svg" xmlns:xlink="http://www.w3.org/1999/xlink" xmlns:sketch="http://www.bohemiancoding.com/sketch/ns">
    <!-- Generator: Sketch 3.2.2 (9983) - http://www.bohemiancoding.com/sketch -->
    <title>coffee</title>
    <desc>Created with Sketch.</desc>
    <defs></defs>
    <g id="Page-1" stroke="none" stroke-width="1" fill="none" fill-rule="evenodd" sketch:type="MSPage">
        <g id="tea" sketch:type="MSLayerGroup" transform="translate(0.000000, -12.000000)">
            <g id="Main" sketch:type="MSShapeGroup">
                <g id="Profile-6">
                    <g id="Tile-8">
                        <g id="tea">
                            <g id="Group-4" fill="#60ABE1">
                                <rect id="Rectangle-264" x="0" y="0" width="240" height="120"></rect>
                            </g>
                            <rect id="Rectangle-346" fill="#439FE1" x="0" y="86" width="240" height="34"></rect>
                        </g>
                    </g>
                </g>
            </g>
        </g>
        <g id="Group" sketch:type="MSLayerGroup" transform="translate(97.000000, 20.000000)">
            <path d="M38.0154,20 L8.1824,20 C3.2384,24.219 0.0984,30.491 0.0984,37.5 C0.0984,45.723 4.4174,52.934 10.9074,57 L35.2904,57 C41.7804,52.934 46.0984,45.723 46.0984,37.5 C46.0984,30.491 42.9594,24.219 38.0154,20" id="Fill-5734" fill="#9CE5F4" sketch:type="MSShapeGroup"></path>
            <path d="M54.406,8.3682 C53.437,7.5182 52.077,7.2722 50.87,7.7222 L38.099,12.5122 L38.099,19.9882 L51.261,15.0522 C57.235,21.4312 58.486,31.0902 55.216,45.2102 C54.78,47.0942 55.952,48.9732 57.836,49.4102 C58.101,49.4722 58.367,49.5012 58.628,49.5012 C60.22,49.5012 61.66,48.4072 62.035,46.7902 C66.202,28.7932 63.779,16.5852 54.406,8.3682" id="Fill-5735" fill="#3E3E3F" sketch:type="MSShapeGroup"></path>
            <path d="M38.099,20 L8.099,20 L8.099,12 L38.099,12 L38.099,20 Z" id="Fill-5736" fill="#F0F1F1" sketch:type="MSShapeGroup"></path>
            <path d="M24,20 L8.099,20 L8.099,12 L24,12 L24,20 Z" id="Fill-5737" fill="#FFFFFF" sketch:type="MSShapeGroup"></path>
            <path d="M8.9033,12 L4.7233,3.64 C4.3103,2.814 4.4453,1.82 5.0633,1.133 C5.6813,0.447 6.6563,0.209 7.5203,0.533 L38.0993,12 L8.9033,12 Z" id="Fill-5738" fill="#9CE5F4" sketch:type="MSShapeGroup"></path>
            <path d="M13.6465,54 L33.1535,54 C38.4985,50.651 41.9305,44.706 41.7885,38 L5.0115,38 C4.8695,44.692 8.2905,50.644 13.6465,54" id="Fill-5739" fill="#692E19" sketch:type="MSShapeGroup"></path>
            <path d="M24,6.7129 L7.521,0.5329 C6.656,0.2089 5.681,0.4469 5.063,1.1329 C4.445,1.8199 4.311,2.8149 4.724,3.6409 L8.903,11.9999 L24,11.9999 L24,6.7129 Z" id="Fill-5740" fill="#C9F2F9" sketch:type="MSShapeGroup"></path>
            <path d="M24,20 L8.183,20 C3.238,24.219 0.099,30.491 0.099,37.5 C0.099,45.723 4.417,52.934 10.907,57 L24,57 L24,20 Z" id="Fill-5741" fill="#C9F2F9" sketch:type="MSShapeGroup"></path>
            <path d="M24.1208,38 L5.0108,38 C4.8728,44.74 8.3248,50.665 13.6468,54 L24.1208,54 L24.1208,38 Z" id="Fill-5742" fill="#84462D" sketch:type="MSShapeGroup"></path>
        </g>
    </g>
</svg>