<?xml version="1.0" encoding="iso-8859-1"?>
<!-- Generator: Adobe Illustrator 17.1.0, SVG Export Plug-In . SVG Version: 6.00 Build 0)  -->
<!DOCTYPE svg PUBLIC "-//W3C//DTD SVG 1.0//EN" "http://www.w3.org/TR/2001/REC-SVG-20010904/DTD/svg10.dtd">
<svg version="1.0" xmlns="http://www.w3.org/2000/svg" xmlns:xlink="http://www.w3.org/1999/xlink" x="0px" y="0px" width="110px"
	 height="110px" viewBox="0 0 110 110" style="enable-background:new 0 0 110 110;" xml:space="preserve">
<g id="Artboard" style="display:none;">
	
		<rect x="-1073.5" y="-304.5" style="display:inline;fill:#808080;stroke:#000000;stroke-miterlimit:10;" width="1351" height="718"/>
</g>
<g id="R-Multicolor" style="display:none;">
	<circle style="display:inline;fill:#32BEA6;" cx="55" cy="55" r="55"/>
	<g style="display:inline;">
		<path style="fill:#F7B4B4;" d="M67.82,82.202L67.82,82.202h17.382c0.066,0,0.124,0.025,0.187,0.038
			c-1.034-4.288-2.573-8.501-4.688-12.63c-1.416-2.764-3.713-4.979-6.523-6.302l-10.292-4.844c-1.58-0.744-3.463-0.326-4.582,1.015
			c-0.75,0.901-1.048,2.095-0.808,3.242s0.991,2.122,2.04,2.646l8.667,4.833H49.686c-1.631,0-3.238-0.399-4.679-1.162l-12.429-6.58
			c-1.378-0.729-3.081-0.376-4.055,0.841c-0.585,0.732-0.826,1.68-0.66,2.603c0.166,0.922,0.722,1.728,1.525,2.21l14.726,8.835
			c1.382,0.829,2.896,1.415,4.477,1.73l16.301,2.209c1.004,0.136,1.896,0.65,2.527,1.406C67.544,82.239,67.679,82.202,67.82,82.202z
			"/>
		<path style="fill:#FBC8C8;" d="M74.178,63.309l-10.292-4.844c-1.58-0.744-3.463-0.326-4.582,1.016
			c-0.75,0.9-1.048,2.095-0.808,3.242s0.991,2.122,2.04,2.646l8.667,4.833H49.686c-1.631,0-3.238-0.399-4.679-1.162l-12.429-6.58
			c-1.378-0.729-3.081-0.376-4.055,0.841c-0.585,0.731-0.826,1.68-0.66,2.603s0.722,1.728,1.525,2.21l14.726,8.835
			c1.382,0.829,2.896,1.415,4.477,1.73l10.653,1.444l20.625-11.908C78.455,66.104,76.495,64.399,74.178,63.309z"/>
		<path style="fill:#FFFFFF;" d="M87,83.417c0-0.66-0.535-1.194-1.194-1.194H65.045c-0.414,0-0.798,0.214-1.016,0.566
			c-0.218,0.352-0.237,0.792-0.052,1.162l1.194,2.389c0.202,0.405,0.616,0.66,1.068,0.66h19.566C86.465,87,87,86.465,87,85.806
			V83.417z"/>
		<path style="fill:#F7B4B4;" d="M70.154,44.315L61,31c-2.513-2.513-7.395-5.026-14.645-7.54c-0.869-0.301-1.81-0.295-2.675,0.02
			L27,28.739v16.97l3.795-2.173c0.783-0.348,1.656-0.435,2.492-0.25l13.821,3.071c1.643,0.365,3.297-0.571,3.829-2.168
			c0.28-0.839,0.209-1.755-0.196-2.542c-0.405-0.786-1.109-1.376-1.955-1.636l-8.975-2.761C39.329,37.101,39,36.655,39,36.15
			c0-0.635,0.515-1.15,1.15-1.15h12.023c1.16,0,2.263,0.504,3.023,1.38l10.119,11.676c0.974,1.124,2.615,1.386,3.89,0.62
			c0.725-0.435,1.238-1.15,1.417-1.976C70.802,45.875,70.633,45.011,70.154,44.315z"/>
		<path style="fill:#FFFFFF;" d="M23,47.382c0,0.347,0.179,0.668,0.474,0.851c0.295,0.182,0.663,0.199,0.973,0.044l2-1
			C26.786,47.107,27,46.761,27,46.382V28.618c0-0.347-0.179-0.668-0.474-0.851c-0.295-0.182-0.663-0.199-0.973-0.044l-2,1
			C23.214,28.893,23,29.239,23,29.618V47.382z"/>
		<g>
			<g>
				<circle style="fill:#FACB1B;" cx="48.5" cy="57.5" r="9.5"/>
			</g>
			<path style="fill:#FBE158;" d="M48.5,48c-5.247,0-9.5,4.253-9.5,9.5c0,2.62,1.061,4.993,2.777,6.711l13.434-13.434
				C53.493,49.061,51.12,48,48.5,48z"/>
		</g>
		<g>
			<path style="fill:#84462D;" d="M48.66,50.587c0.383,0,0.687,0.304,0.687,0.687v0.351c0.942,0.112,1.74,0.415,2.475,0.878
				c0.255,0.144,0.479,0.383,0.479,0.766c0,0.495-0.399,0.878-0.894,0.878c-0.16,0-0.319-0.048-0.479-0.144
				c-0.559-0.335-1.102-0.575-1.644-0.702v3.066c2.427,0.607,3.465,1.58,3.465,3.289c0,1.756-1.373,2.922-3.401,3.114v0.958
				c0,0.383-0.304,0.687-0.687,0.687c-0.383,0-0.703-0.303-0.703-0.687v-0.99c-1.197-0.128-2.299-0.559-3.273-1.245
				c-0.271-0.176-0.431-0.431-0.431-0.766c0-0.495,0.383-0.878,0.878-0.878c0.192,0,0.383,0.064,0.527,0.176
				c0.75,0.543,1.485,0.91,2.363,1.07v-3.145c-2.331-0.607-3.417-1.485-3.417-3.289c0-1.708,1.357-2.89,3.353-3.05v-0.335
				C47.957,50.89,48.276,50.587,48.66,50.587z M48.021,56.031v-2.826c-1.022,0.096-1.533,0.638-1.533,1.341
				C46.488,55.217,46.792,55.632,48.021,56.031z M49.282,58.25v2.906c1.022-0.112,1.581-0.623,1.581-1.389
				C50.863,59.065,50.511,58.633,49.282,58.25z"/>
		</g>
		<path style="fill:#FBC8C8;" d="M46.355,23.46c-0.869-0.301-1.81-0.295-2.675,0.02L27,28.739v11.539l25.212-14.556
			C50.464,24.968,48.529,24.214,46.355,23.46z"/>
		<path style="fill:#FFFFFF;" d="M63.536,60.176c-1.004-0.354-2.117,0.06-2.645,0.984c-0.317,0.554-0.378,1.219-0.166,1.821
			c0.211,0.602,0.673,1.084,1.267,1.319l0.532,0.211l1.748-4.075L63.536,60.176z"/>
		<path style="fill:#FFFFFF;" d="M46.432,45.385c1.019,0.309,2.112-0.155,2.598-1.102c0.292-0.568,0.322-1.234,0.084-1.827
			c-0.238-0.592-0.722-1.052-1.325-1.26l-0.541-0.187l-1.563,4.15L46.432,45.385z"/>
	</g>
</g>
<g id="Multicolor_1_">
	<g>
		<path style="fill:#F7B4B4;" d="M67.82,82.202L67.82,82.202h17.382c0.066,0,0.124,0.025,0.187,0.038
			c-1.034-4.288-2.573-8.501-4.688-12.63c-1.416-2.764-3.713-4.979-6.523-6.302l-10.292-4.844c-1.58-0.744-3.463-0.326-4.582,1.015
			c-0.75,0.901-1.048,2.095-0.808,3.242s0.991,2.122,2.04,2.646l8.667,4.833H49.686c-1.631,0-3.238-0.399-4.679-1.162l-12.429-6.58
			c-1.378-0.729-3.081-0.376-4.055,0.841c-0.585,0.732-0.826,1.68-0.66,2.603c0.166,0.922,0.722,1.728,1.525,2.21l14.726,8.835
			c1.382,0.829,2.896,1.415,4.477,1.73l16.301,2.209c1.004,0.136,1.896,0.65,2.527,1.406C67.544,82.239,67.679,82.202,67.82,82.202z
			"/>
		<path style="fill:#FBC8C8;" d="M74.178,63.309l-10.292-4.844c-1.58-0.744-3.463-0.326-4.582,1.016
			c-0.75,0.9-1.048,2.095-0.808,3.242s0.991,2.122,2.04,2.646l8.667,4.833H49.686c-1.631,0-3.238-0.399-4.679-1.162l-12.429-6.58
			c-1.378-0.729-3.081-0.376-4.055,0.841c-0.585,0.731-0.826,1.68-0.66,2.603s0.722,1.728,1.525,2.21l14.726,8.835
			c1.382,0.829,2.896,1.415,4.477,1.73l10.653,1.444l20.625-11.908C78.455,66.104,76.495,64.399,74.178,63.309z"/>
		<path style="fill:#FFFFFF;" d="M87,83.417c0-0.66-0.535-1.194-1.194-1.194H65.045c-0.414,0-0.798,0.214-1.016,0.566
			c-0.218,0.352-0.237,0.792-0.052,1.162l1.194,2.389c0.202,0.405,0.616,0.66,1.068,0.66h19.566C86.465,87,87,86.465,87,85.806
			V83.417z"/>
		<path style="fill:#F7B4B4;" d="M70.154,44.315L61,31c-2.513-2.513-7.395-5.026-14.645-7.54c-0.869-0.301-1.81-0.295-2.675,0.02
			L27,28.739v16.97l3.795-2.173c0.783-0.348,1.656-0.435,2.492-0.25l13.821,3.071c1.643,0.365,3.297-0.571,3.829-2.168
			c0.28-0.839,0.209-1.755-0.196-2.542c-0.405-0.786-1.109-1.376-1.955-1.636l-8.975-2.761C39.329,37.101,39,36.655,39,36.15
			c0-0.635,0.515-1.15,1.15-1.15h12.023c1.16,0,2.263,0.504,3.023,1.38l10.119,11.676c0.974,1.124,2.615,1.386,3.89,0.62
			c0.725-0.435,1.238-1.15,1.417-1.976C70.802,45.875,70.633,45.011,70.154,44.315z"/>
		<path style="fill:#FFFFFF;" d="M23,47.382c0,0.347,0.179,0.668,0.474,0.851c0.295,0.182,0.663,0.199,0.973,0.044l2-1
			C26.786,47.107,27,46.761,27,46.382V28.618c0-0.347-0.179-0.668-0.474-0.851c-0.295-0.182-0.663-0.199-0.973-0.044l-2,1
			C23.214,28.893,23,29.239,23,29.618V47.382z"/>
		<g>
			<g>
				<circle style="fill:#FACB1B;" cx="48.5" cy="57.5" r="9.5"/>
			</g>
			<path style="fill:#FBE158;" d="M48.5,48c-5.247,0-9.5,4.253-9.5,9.5c0,2.62,1.061,4.993,2.777,6.711l13.434-13.434
				C53.493,49.061,51.12,48,48.5,48z"/>
		</g>
		<g>
			<path style="fill:#84462D;" d="M48.66,50.587c0.383,0,0.687,0.304,0.687,0.687v0.351c0.942,0.112,1.74,0.415,2.475,0.878
				c0.255,0.144,0.479,0.383,0.479,0.766c0,0.495-0.399,0.878-0.894,0.878c-0.16,0-0.319-0.048-0.479-0.144
				c-0.559-0.335-1.102-0.575-1.644-0.702v3.066c2.427,0.607,3.465,1.58,3.465,3.289c0,1.756-1.373,2.922-3.401,3.114v0.958
				c0,0.383-0.304,0.687-0.687,0.687c-0.383,0-0.703-0.303-0.703-0.687v-0.99c-1.197-0.128-2.299-0.559-3.273-1.245
				c-0.271-0.176-0.431-0.431-0.431-0.766c0-0.495,0.383-0.878,0.878-0.878c0.192,0,0.383,0.064,0.527,0.176
				c0.75,0.543,1.485,0.91,2.363,1.07v-3.145c-2.331-0.607-3.417-1.485-3.417-3.289c0-1.708,1.357-2.89,3.353-3.05v-0.335
				C47.957,50.89,48.276,50.587,48.66,50.587z M48.021,56.031v-2.826c-1.022,0.096-1.533,0.638-1.533,1.341
				C46.488,55.217,46.792,55.632,48.021,56.031z M49.282,58.25v2.906c1.022-0.112,1.581-0.623,1.581-1.389
				C50.863,59.065,50.511,58.633,49.282,58.25z"/>
		</g>
		<path style="fill:#FBC8C8;" d="M46.355,23.46c-0.869-0.301-1.81-0.295-2.675,0.02L27,28.739v11.539l25.212-14.556
			C50.464,24.968,48.529,24.214,46.355,23.46z"/>
		<path style="fill:#FFFFFF;" d="M63.536,60.176c-1.004-0.354-2.117,0.06-2.645,0.984c-0.317,0.554-0.378,1.219-0.166,1.821
			c0.211,0.602,0.673,1.084,1.267,1.319l0.532,0.211l1.748-4.075L63.536,60.176z"/>
		<path style="fill:#FFFFFF;" d="M46.432,45.385c1.019,0.309,2.112-0.155,2.598-1.102c0.292-0.568,0.322-1.234,0.084-1.827
			c-0.238-0.592-0.722-1.052-1.325-1.26l-0.541-0.187l-1.563,4.15L46.432,45.385z"/>
	</g>
</g>
<g id="Blue" style="display:none;">
	<g style="display:inline;">
		<g>
			<path style="fill:#BBE7F2;" d="M67.82,82.203L67.82,82.203h17.382c0.067,0,0.124,0.025,0.187,0.037
				c-1.034-4.287-2.573-8.5-4.688-12.629c-1.416-2.764-3.713-4.979-6.523-6.302l-10.292-4.844c-1.58-0.743-3.463-0.326-4.582,1.016
				c-0.75,0.9-1.048,2.095-0.808,3.242c0.24,1.147,0.992,2.122,2.04,2.646l8.666,4.834H49.686c-1.631,0-3.237-0.399-4.679-1.163
				l-12.43-6.58c-1.378-0.729-3.081-0.376-4.055,0.841c-0.585,0.731-0.826,1.68-0.66,2.603c0.166,0.922,0.722,1.728,1.525,2.211
				l14.726,8.835c1.382,0.829,2.896,1.415,4.477,1.731l16.301,2.209c1.004,0.137,1.896,0.651,2.527,1.406
				C67.544,82.239,67.679,82.203,67.82,82.203z"/>
		</g>
		<g>
			<path style="fill:#E1F5FA;" d="M74.178,63.309l-10.292-4.844c-1.58-0.744-3.463-0.326-4.582,1.016
				c-0.75,0.9-1.048,2.095-0.808,3.242c0.24,1.147,0.992,2.122,2.04,2.646l8.666,4.833H49.686c-1.631,0-3.237-0.399-4.679-1.162
				l-12.43-6.58c-1.378-0.729-3.081-0.376-4.055,0.841c-0.585,0.731-0.826,1.68-0.66,2.603c0.166,0.922,0.722,1.728,1.525,2.21
				l14.726,8.835c1.382,0.829,2.896,1.415,4.477,1.73l10.653,1.444l20.625-11.908C78.455,66.104,76.495,64.399,74.178,63.309z"/>
		</g>
		<g>
			<path style="fill:#FFFFFF;" d="M87,83.417c0-0.66-0.535-1.194-1.194-1.194H65.045c-0.414,0-0.798,0.214-1.016,0.566
				c-0.217,0.353-0.237,0.793-0.052,1.162l1.194,2.389c0.203,0.405,0.616,0.66,1.068,0.66h19.566C86.465,87,87,86.465,87,85.806
				V83.417z"/>
		</g>
		<g>
			<path style="fill:#BBE7F2;" d="M70.154,44.315L61,31c-2.513-2.513-7.395-5.026-14.645-7.54c-0.869-0.301-1.811-0.295-2.675,0.02
				L27,28.739v16.97l3.795-2.173c0.783-0.348,1.656-0.435,2.492-0.25l13.821,3.071c1.643,0.365,3.296-0.571,3.829-2.168
				c0.28-0.839,0.209-1.755-0.195-2.542c-0.404-0.787-1.109-1.376-1.955-1.637l-8.975-2.761C39.329,37.102,39,36.655,39,36.15
				c0-0.635,0.515-1.15,1.15-1.15h12.023c1.16,0,2.263,0.504,3.022,1.38l10.119,11.676c0.974,1.124,2.615,1.386,3.891,0.621
				c0.725-0.435,1.237-1.15,1.417-1.976C70.803,45.875,70.633,45.011,70.154,44.315z"/>
		</g>
		<g>
			<path style="fill:#FFFFFF;" d="M23,47.382c0,0.347,0.18,0.669,0.474,0.851c0.295,0.182,0.663,0.199,0.973,0.044l2-1
				C26.786,47.107,27,46.761,27,46.382V28.618c0-0.346-0.18-0.668-0.474-0.85c-0.295-0.182-0.663-0.199-0.973-0.044l-2,1
				C23.214,28.893,23,29.239,23,29.618V47.382z"/>
		</g>
		<g>
			<g>
				<circle style="fill:#0081A1;" cx="48.5" cy="57.5" r="9.5"/>
			</g>
		</g>
		<g>
			<path style="fill:#009FC7;" d="M48.5,48c-5.247,0-9.5,4.253-9.5,9.5c0,2.621,1.061,4.993,2.777,6.711l13.434-13.435
				C53.493,49.062,51.12,48,48.5,48z"/>
		</g>
		<g>
			<g>
				<path style="fill:#FFFFFF;" d="M48.66,50.587c0.383,0,0.686,0.303,0.686,0.687v0.351c0.942,0.112,1.74,0.415,2.475,0.878
					c0.255,0.144,0.479,0.383,0.479,0.767c0,0.495-0.399,0.878-0.894,0.878c-0.16,0-0.319-0.048-0.479-0.144
					c-0.559-0.335-1.102-0.575-1.645-0.703v3.066c2.427,0.606,3.465,1.58,3.465,3.289c0,1.756-1.373,2.922-3.401,3.114v0.958
					c0,0.383-0.303,0.686-0.686,0.686c-0.383,0-0.703-0.303-0.703-0.686v-0.99c-1.198-0.128-2.299-0.559-3.273-1.246
					c-0.271-0.176-0.431-0.431-0.431-0.767c0-0.495,0.383-0.878,0.878-0.878c0.191,0,0.383,0.064,0.527,0.176
					c0.75,0.542,1.485,0.91,2.363,1.069v-3.146c-2.331-0.606-3.417-1.484-3.417-3.289c0-1.708,1.357-2.89,3.353-3.049v-0.335
					C47.957,50.89,48.276,50.587,48.66,50.587z M48.02,56.031v-2.826c-1.021,0.095-1.532,0.638-1.532,1.341
					C46.488,55.217,46.791,55.632,48.02,56.031z M49.282,58.25v2.906c1.022-0.111,1.581-0.623,1.581-1.389
					C50.863,59.065,50.512,58.634,49.282,58.25z"/>
			</g>
		</g>
		<g>
			<path style="fill:#E1F5FA;" d="M46.355,23.46c-0.869-0.301-1.811-0.295-2.675,0.02L27,28.739v11.539l25.212-14.556
				C50.464,24.968,48.529,24.214,46.355,23.46z"/>
		</g>
		<g>
			<path style="fill:#FFFFFF;" d="M63.536,60.177c-1.004-0.354-2.117,0.06-2.646,0.984c-0.317,0.554-0.377,1.219-0.166,1.821
				c0.211,0.602,0.673,1.084,1.267,1.319l0.532,0.21l1.749-4.076L63.536,60.177z"/>
		</g>
		<g>
			<path style="fill:#FFFFFF;" d="M46.432,45.386c1.019,0.308,2.112-0.155,2.598-1.103c0.292-0.568,0.322-1.234,0.084-1.827
				c-0.238-0.592-0.722-1.052-1.325-1.261l-0.541-0.187l-1.562,4.15L46.432,45.386z"/>
		</g>
	</g>
</g>
<g id="R-Blue" style="display:none;">
	<g style="display:inline;">
		<circle style="fill:#81D2EB;" cx="55" cy="55" r="55"/>
	</g>
	<g style="display:inline;">
		<g>
			<path style="fill:#BBE7F2;" d="M67.82,82.203L67.82,82.203h17.382c0.067,0,0.124,0.025,0.187,0.037
				c-1.034-4.287-2.573-8.5-4.688-12.629c-1.416-2.764-3.713-4.979-6.523-6.302l-10.292-4.844c-1.58-0.743-3.463-0.326-4.582,1.016
				c-0.75,0.9-1.048,2.095-0.808,3.242c0.24,1.147,0.992,2.122,2.04,2.646l8.666,4.834H49.686c-1.631,0-3.237-0.399-4.679-1.163
				l-12.43-6.58c-1.378-0.729-3.081-0.376-4.055,0.841c-0.585,0.731-0.826,1.68-0.66,2.603c0.166,0.922,0.722,1.728,1.525,2.211
				l14.726,8.835c1.382,0.829,2.896,1.415,4.477,1.731l16.301,2.209c1.004,0.137,1.896,0.651,2.527,1.406
				C67.544,82.239,67.679,82.203,67.82,82.203z"/>
		</g>
		<g>
			<path style="fill:#E1F5FA;" d="M74.178,63.309l-10.292-4.844c-1.58-0.744-3.463-0.326-4.582,1.016
				c-0.75,0.9-1.048,2.095-0.808,3.242c0.24,1.147,0.992,2.122,2.04,2.646l8.666,4.833H49.686c-1.631,0-3.237-0.399-4.679-1.162
				l-12.43-6.58c-1.378-0.729-3.081-0.376-4.055,0.841c-0.585,0.731-0.826,1.68-0.66,2.603c0.166,0.922,0.722,1.728,1.525,2.21
				l14.726,8.835c1.382,0.829,2.896,1.415,4.477,1.73l10.653,1.444l20.625-11.908C78.455,66.104,76.495,64.399,74.178,63.309z"/>
		</g>
		<g>
			<path style="fill:#FFFFFF;" d="M87,83.417c0-0.66-0.535-1.194-1.194-1.194H65.045c-0.414,0-0.798,0.214-1.016,0.566
				c-0.217,0.353-0.237,0.793-0.052,1.162l1.194,2.389c0.203,0.405,0.616,0.66,1.068,0.66h19.566C86.465,87,87,86.465,87,85.806
				V83.417z"/>
		</g>
		<g>
			<path style="fill:#BBE7F2;" d="M70.154,44.315L61,31c-2.513-2.513-7.395-5.026-14.645-7.54c-0.869-0.301-1.811-0.295-2.675,0.02
				L27,28.739v16.97l3.795-2.173c0.783-0.348,1.656-0.435,2.492-0.25l13.821,3.071c1.643,0.365,3.296-0.571,3.829-2.168
				c0.28-0.839,0.209-1.755-0.195-2.542c-0.404-0.787-1.109-1.376-1.955-1.637l-8.975-2.761C39.329,37.102,39,36.655,39,36.15
				c0-0.635,0.515-1.15,1.15-1.15h12.023c1.16,0,2.263,0.504,3.022,1.38l10.119,11.676c0.974,1.124,2.615,1.386,3.891,0.621
				c0.725-0.435,1.237-1.15,1.417-1.976C70.803,45.875,70.633,45.011,70.154,44.315z"/>
		</g>
		<g>
			<path style="fill:#FFFFFF;" d="M23,47.382c0,0.347,0.18,0.669,0.474,0.851c0.295,0.182,0.663,0.199,0.973,0.044l2-1
				C26.786,47.107,27,46.761,27,46.382V28.618c0-0.346-0.18-0.668-0.474-0.85c-0.295-0.182-0.663-0.199-0.973-0.044l-2,1
				C23.214,28.893,23,29.239,23,29.618V47.382z"/>
		</g>
		<g>
			<g>
				<circle style="fill:#0081A1;" cx="48.5" cy="57.5" r="9.5"/>
			</g>
		</g>
		<g>
			<path style="fill:#009FC7;" d="M48.5,48c-5.247,0-9.5,4.253-9.5,9.5c0,2.621,1.061,4.993,2.777,6.711l13.434-13.435
				C53.493,49.062,51.12,48,48.5,48z"/>
		</g>
		<g>
			<g>
				<path style="fill:#FFFFFF;" d="M48.66,50.587c0.383,0,0.686,0.303,0.686,0.687v0.351c0.942,0.112,1.74,0.415,2.475,0.878
					c0.255,0.144,0.479,0.383,0.479,0.767c0,0.495-0.399,0.878-0.894,0.878c-0.16,0-0.319-0.048-0.479-0.144
					c-0.559-0.335-1.102-0.575-1.645-0.703v3.066c2.427,0.606,3.465,1.58,3.465,3.289c0,1.756-1.373,2.922-3.401,3.114v0.958
					c0,0.383-0.303,0.686-0.686,0.686c-0.383,0-0.703-0.303-0.703-0.686v-0.99c-1.198-0.128-2.299-0.559-3.273-1.246
					c-0.271-0.176-0.431-0.431-0.431-0.767c0-0.495,0.383-0.878,0.878-0.878c0.191,0,0.383,0.064,0.527,0.176
					c0.75,0.542,1.485,0.91,2.363,1.069v-3.146c-2.331-0.606-3.417-1.484-3.417-3.289c0-1.708,1.357-2.89,3.353-3.049v-0.335
					C47.957,50.89,48.276,50.587,48.66,50.587z M48.02,56.031v-2.826c-1.021,0.095-1.532,0.638-1.532,1.341
					C46.488,55.217,46.791,55.632,48.02,56.031z M49.282,58.25v2.906c1.022-0.111,1.581-0.623,1.581-1.389
					C50.863,59.065,50.512,58.634,49.282,58.25z"/>
			</g>
		</g>
		<g>
			<path style="fill:#E1F5FA;" d="M46.355,23.46c-0.869-0.301-1.811-0.295-2.675,0.02L27,28.739v11.539l25.212-14.556
				C50.464,24.968,48.529,24.214,46.355,23.46z"/>
		</g>
		<g>
			<path style="fill:#FFFFFF;" d="M63.536,60.177c-1.004-0.354-2.117,0.06-2.646,0.984c-0.317,0.554-0.377,1.219-0.166,1.821
				c0.211,0.602,0.673,1.084,1.267,1.319l0.532,0.21l1.749-4.076L63.536,60.177z"/>
		</g>
		<g>
			<path style="fill:#FFFFFF;" d="M46.432,45.386c1.019,0.308,2.112-0.155,2.598-1.103c0.292-0.568,0.322-1.234,0.084-1.827
				c-0.238-0.592-0.722-1.052-1.325-1.261l-0.541-0.187l-1.562,4.15L46.432,45.386z"/>
		</g>
	</g>
</g>
<g id="Green" style="display:none;">
	<g style="display:inline;">
		<g>
			<path style="fill:#AAF0E9;" d="M67.82,82.203L67.82,82.203h17.382c0.066,0,0.124,0.025,0.187,0.037
				c-1.034-4.287-2.573-8.5-4.688-12.629c-1.416-2.764-3.713-4.979-6.523-6.302l-10.292-4.844c-1.58-0.743-3.463-0.326-4.582,1.016
				c-0.75,0.9-1.048,2.095-0.808,3.242c0.24,1.147,0.992,2.122,2.04,2.646l8.667,4.834H49.686c-1.631,0-3.237-0.399-4.679-1.163
				l-12.43-6.58c-1.378-0.729-3.08-0.376-4.055,0.841c-0.585,0.731-0.826,1.68-0.66,2.603c0.166,0.922,0.722,1.728,1.525,2.211
				l14.726,8.835c1.382,0.829,2.896,1.415,4.477,1.731l16.301,2.209c1.004,0.137,1.896,0.651,2.527,1.406
				C67.544,82.239,67.679,82.203,67.82,82.203z"/>
		</g>
		<g>
			<path style="fill:#D7FCF9;" d="M74.178,63.309l-10.292-4.844c-1.58-0.744-3.463-0.326-4.582,1.016
				c-0.75,0.9-1.048,2.095-0.808,3.242c0.24,1.147,0.992,2.122,2.04,2.646l8.667,4.833H49.686c-1.631,0-3.237-0.399-4.679-1.162
				l-12.43-6.58c-1.378-0.729-3.08-0.376-4.055,0.841c-0.585,0.731-0.826,1.68-0.66,2.603c0.166,0.922,0.722,1.728,1.525,2.21
				l14.726,8.835c1.382,0.829,2.896,1.415,4.477,1.73l10.653,1.444l20.625-11.908C78.455,66.104,76.495,64.399,74.178,63.309z"/>
		</g>
		<g>
			<path style="fill:#FFFFFF;" d="M87,83.417c0-0.66-0.535-1.194-1.194-1.194H65.045c-0.414,0-0.798,0.214-1.016,0.566
				c-0.217,0.353-0.237,0.793-0.052,1.162l1.194,2.389c0.203,0.405,0.616,0.66,1.068,0.66h19.566C86.465,87,87,86.465,87,85.806
				V83.417z"/>
		</g>
		<g>
			<path style="fill:#AAF0E9;" d="M70.154,44.315L61,31c-2.513-2.513-7.395-5.026-14.645-7.54c-0.869-0.301-1.811-0.295-2.675,0.02
				L27,28.739v16.97l3.795-2.173c0.783-0.348,1.656-0.435,2.492-0.25l13.821,3.071c1.643,0.365,3.296-0.571,3.829-2.168
				c0.28-0.839,0.209-1.755-0.195-2.542c-0.404-0.787-1.109-1.376-1.955-1.637l-8.975-2.761C39.329,37.102,39,36.655,39,36.15
				c0-0.635,0.515-1.15,1.15-1.15h12.023c1.16,0,2.263,0.504,3.022,1.38l10.119,11.676c0.974,1.124,2.615,1.386,3.891,0.621
				c0.725-0.435,1.237-1.15,1.417-1.976C70.803,45.875,70.633,45.011,70.154,44.315z"/>
		</g>
		<g>
			<path style="fill:#FFFFFF;" d="M23,47.382c0,0.347,0.18,0.669,0.474,0.851c0.295,0.182,0.663,0.199,0.973,0.044l2-1
				C26.786,47.107,27,46.761,27,46.382V28.618c0-0.346-0.18-0.668-0.474-0.85c-0.295-0.182-0.663-0.199-0.973-0.044l-2,1
				C23.214,28.893,23,29.239,23,29.618V47.382z"/>
		</g>
		<g>
			<g>
				<circle style="fill:#009687;" cx="48.5" cy="57.5" r="9.5"/>
			</g>
		</g>
		<g>
			<path style="fill:#00B8A5;" d="M48.5,48c-5.247,0-9.5,4.253-9.5,9.5c0,2.621,1.061,4.993,2.777,6.711l13.434-13.435
				C53.493,49.062,51.12,48,48.5,48z"/>
		</g>
		<g>
			<g>
				<path style="fill:#FFFFFF;" d="M48.66,50.587c0.383,0,0.687,0.303,0.687,0.687v0.351c0.942,0.112,1.74,0.415,2.475,0.878
					c0.255,0.144,0.479,0.383,0.479,0.767c0,0.495-0.399,0.878-0.894,0.878c-0.16,0-0.319-0.048-0.479-0.144
					c-0.559-0.335-1.102-0.575-1.645-0.703v3.066c2.427,0.606,3.465,1.58,3.465,3.289c0,1.756-1.373,2.922-3.401,3.114v0.958
					c0,0.383-0.303,0.686-0.687,0.686c-0.383,0-0.703-0.303-0.703-0.686v-0.99c-1.198-0.128-2.299-0.559-3.273-1.246
					c-0.271-0.176-0.431-0.431-0.431-0.767c0-0.495,0.383-0.878,0.878-0.878c0.191,0,0.383,0.064,0.527,0.176
					c0.75,0.542,1.485,0.91,2.363,1.069v-3.146c-2.331-0.606-3.417-1.484-3.417-3.289c0-1.708,1.357-2.89,3.353-3.049v-0.335
					C47.957,50.89,48.276,50.587,48.66,50.587z M48.021,56.031v-2.826c-1.021,0.095-1.532,0.638-1.532,1.341
					C46.488,55.217,46.792,55.632,48.021,56.031z M49.282,58.25v2.906c1.022-0.111,1.581-0.623,1.581-1.389
					C50.863,59.065,50.512,58.634,49.282,58.25z"/>
			</g>
		</g>
		<g>
			<path style="fill:#D7FCF9;" d="M46.355,23.46c-0.869-0.301-1.811-0.295-2.675,0.02L27,28.739v11.539l25.212-14.556
				C50.464,24.968,48.529,24.214,46.355,23.46z"/>
		</g>
		<g>
			<path style="fill:#FFFFFF;" d="M63.536,60.177c-1.004-0.354-2.117,0.06-2.646,0.984c-0.317,0.554-0.377,1.219-0.166,1.821
				c0.211,0.602,0.673,1.084,1.267,1.319l0.532,0.21l1.749-4.076L63.536,60.177z"/>
		</g>
		<g>
			<path style="fill:#FFFFFF;" d="M46.432,45.386c1.019,0.308,2.112-0.155,2.598-1.103c0.292-0.568,0.322-1.234,0.084-1.827
				c-0.238-0.592-0.722-1.052-1.325-1.261l-0.541-0.187l-1.562,4.15L46.432,45.386z"/>
		</g>
	</g>
</g>
<g id="R-Green" style="display:none;">
	<g style="display:inline;">
		<circle style="fill:#87E0C8;" cx="55" cy="55" r="55"/>
	</g>
	<g style="display:inline;">
		<g>
			<path style="fill:#AAF0E9;" d="M67.82,82.203L67.82,82.203h17.382c0.067,0,0.124,0.025,0.187,0.037
				c-1.034-4.287-2.573-8.5-4.688-12.629c-1.416-2.764-3.713-4.979-6.523-6.302l-10.292-4.844c-1.58-0.743-3.463-0.326-4.582,1.016
				c-0.75,0.9-1.048,2.095-0.808,3.242c0.24,1.147,0.992,2.122,2.04,2.646l8.666,4.834H49.686c-1.631,0-3.237-0.399-4.679-1.163
				l-12.43-6.58c-1.378-0.729-3.081-0.376-4.055,0.841c-0.585,0.731-0.826,1.68-0.66,2.603c0.166,0.922,0.722,1.728,1.525,2.211
				l14.726,8.835c1.382,0.829,2.896,1.415,4.477,1.731l16.301,2.209c1.004,0.137,1.896,0.651,2.527,1.406
				C67.544,82.239,67.679,82.203,67.82,82.203z"/>
		</g>
		<g>
			<path style="fill:#D7FCF9;" d="M74.178,63.309l-10.292-4.844c-1.58-0.744-3.463-0.326-4.582,1.016
				c-0.75,0.9-1.048,2.095-0.808,3.242c0.24,1.147,0.992,2.122,2.04,2.646l8.666,4.833H49.686c-1.631,0-3.237-0.399-4.679-1.162
				l-12.43-6.58c-1.378-0.729-3.081-0.376-4.055,0.841c-0.585,0.731-0.826,1.68-0.66,2.603c0.166,0.922,0.722,1.728,1.525,2.21
				l14.726,8.835c1.382,0.829,2.896,1.415,4.477,1.73l10.653,1.444l20.625-11.908C78.455,66.104,76.495,64.399,74.178,63.309z"/>
		</g>
		<g>
			<path style="fill:#FFFFFF;" d="M87,83.417c0-0.66-0.535-1.194-1.194-1.194H65.045c-0.414,0-0.798,0.214-1.016,0.566
				c-0.217,0.353-0.237,0.793-0.052,1.162l1.194,2.389c0.203,0.405,0.616,0.66,1.068,0.66h19.566C86.465,87,87,86.465,87,85.806
				V83.417z"/>
		</g>
		<g>
			<path style="fill:#AAF0E9;" d="M70.154,44.315L61,31c-2.513-2.513-7.395-5.026-14.645-7.54c-0.869-0.301-1.811-0.295-2.675,0.02
				L27,28.739v16.97l3.795-2.173c0.783-0.348,1.656-0.435,2.492-0.25l13.821,3.071c1.643,0.365,3.296-0.571,3.829-2.168
				c0.28-0.839,0.209-1.755-0.195-2.542c-0.404-0.787-1.109-1.376-1.955-1.637l-8.975-2.761C39.329,37.102,39,36.655,39,36.15
				c0-0.635,0.515-1.15,1.15-1.15h12.023c1.16,0,2.263,0.504,3.022,1.38l10.119,11.676c0.974,1.124,2.615,1.386,3.891,0.621
				c0.725-0.435,1.237-1.15,1.417-1.976C70.803,45.875,70.633,45.011,70.154,44.315z"/>
		</g>
		<g>
			<path style="fill:#FFFFFF;" d="M23,47.382c0,0.347,0.18,0.669,0.474,0.851c0.295,0.182,0.663,0.199,0.973,0.044l2-1
				C26.786,47.107,27,46.761,27,46.382V28.618c0-0.346-0.18-0.668-0.474-0.85c-0.295-0.182-0.663-0.199-0.973-0.044l-2,1
				C23.214,28.893,23,29.239,23,29.618V47.382z"/>
		</g>
		<g>
			<g>
				<circle style="fill:#009687;" cx="48.5" cy="57.5" r="9.5"/>
			</g>
		</g>
		<g>
			<path style="fill:#00B8A5;" d="M48.5,48c-5.247,0-9.5,4.253-9.5,9.5c0,2.621,1.061,4.993,2.777,6.711l13.434-13.435
				C53.493,49.062,51.12,48,48.5,48z"/>
		</g>
		<g>
			<g>
				<path style="fill:#FFFFFF;" d="M48.66,50.587c0.383,0,0.686,0.303,0.686,0.687v0.351c0.942,0.112,1.74,0.415,2.475,0.878
					c0.255,0.144,0.479,0.383,0.479,0.767c0,0.495-0.399,0.878-0.894,0.878c-0.16,0-0.319-0.048-0.479-0.144
					c-0.559-0.335-1.102-0.575-1.645-0.703v3.066c2.427,0.606,3.465,1.58,3.465,3.289c0,1.756-1.373,2.922-3.401,3.114v0.958
					c0,0.383-0.303,0.686-0.686,0.686c-0.383,0-0.703-0.303-0.703-0.686v-0.99c-1.198-0.128-2.299-0.559-3.273-1.246
					c-0.271-0.176-0.431-0.431-0.431-0.767c0-0.495,0.383-0.878,0.878-0.878c0.191,0,0.383,0.064,0.527,0.176
					c0.75,0.542,1.485,0.91,2.363,1.069v-3.146c-2.331-0.606-3.417-1.484-3.417-3.289c0-1.708,1.357-2.89,3.353-3.049v-0.335
					C47.957,50.89,48.276,50.587,48.66,50.587z M48.02,56.031v-2.826c-1.021,0.095-1.532,0.638-1.532,1.341
					C46.488,55.217,46.791,55.632,48.02,56.031z M49.282,58.25v2.906c1.022-0.111,1.581-0.623,1.581-1.389
					C50.863,59.065,50.512,58.634,49.282,58.25z"/>
			</g>
		</g>
		<g>
			<path style="fill:#D7FCF9;" d="M46.355,23.46c-0.869-0.301-1.811-0.295-2.675,0.02L27,28.739v11.539l25.212-14.556
				C50.464,24.968,48.529,24.214,46.355,23.46z"/>
		</g>
		<g>
			<path style="fill:#FFFFFF;" d="M63.536,60.177c-1.004-0.354-2.117,0.06-2.646,0.984c-0.317,0.554-0.377,1.219-0.166,1.821
				c0.211,0.602,0.673,1.084,1.267,1.319l0.532,0.21l1.749-4.076L63.536,60.177z"/>
		</g>
		<g>
			<path style="fill:#FFFFFF;" d="M46.432,45.386c1.019,0.308,2.112-0.155,2.598-1.103c0.292-0.568,0.322-1.234,0.084-1.827
				c-0.238-0.592-0.722-1.052-1.325-1.261l-0.541-0.187l-1.562,4.15L46.432,45.386z"/>
		</g>
	</g>
</g>
<g id="Red" style="display:none;">
	<g style="display:inline;">
		<g>
			<path style="fill:#FFD7D4;" d="M67.82,82.203L67.82,82.203h17.382c0.066,0,0.124,0.025,0.187,0.037
				c-1.034-4.287-2.573-8.5-4.688-12.629c-1.416-2.764-3.713-4.979-6.523-6.302l-10.292-4.844c-1.58-0.743-3.463-0.326-4.582,1.016
				c-0.75,0.9-1.048,2.095-0.808,3.242c0.24,1.147,0.992,2.122,2.04,2.646l8.667,4.834H49.686c-1.631,0-3.237-0.399-4.679-1.163
				l-12.43-6.58c-1.378-0.729-3.081-0.376-4.055,0.841c-0.585,0.731-0.826,1.68-0.66,2.603c0.166,0.922,0.722,1.728,1.525,2.211
				l14.726,8.835c1.382,0.829,2.896,1.415,4.477,1.731l16.301,2.209c1.004,0.137,1.896,0.651,2.527,1.406
				C67.544,82.239,67.679,82.203,67.82,82.203z"/>
		</g>
		<g>
			<path style="fill:#FFEFED;" d="M74.178,63.309l-10.292-4.844c-1.58-0.744-3.463-0.326-4.582,1.016
				c-0.75,0.9-1.048,2.095-0.808,3.242c0.24,1.147,0.992,2.122,2.04,2.646l8.667,4.833H49.686c-1.631,0-3.237-0.399-4.679-1.162
				l-12.43-6.58c-1.378-0.729-3.081-0.376-4.055,0.841c-0.585,0.731-0.826,1.68-0.66,2.603c0.166,0.922,0.722,1.728,1.525,2.21
				l14.726,8.835c1.382,0.829,2.896,1.415,4.477,1.73l10.653,1.444l20.624-11.908C78.455,66.104,76.495,64.399,74.178,63.309z"/>
		</g>
		<g>
			<path style="fill:#FFFFFF;" d="M87,83.417c0-0.66-0.535-1.194-1.194-1.194H65.045c-0.414,0-0.798,0.214-1.016,0.566
				c-0.217,0.353-0.237,0.793-0.052,1.162l1.194,2.389c0.203,0.405,0.616,0.66,1.068,0.66h19.566C86.465,87,87,86.465,87,85.806
				V83.417z"/>
		</g>
		<g>
			<path style="fill:#FFD7D4;" d="M70.154,44.315L61,31c-2.513-2.513-7.395-5.026-14.645-7.54c-0.869-0.301-1.811-0.295-2.675,0.02
				L27,28.739v16.97l3.795-2.173c0.783-0.348,1.656-0.435,2.492-0.25l13.821,3.071c1.643,0.365,3.296-0.571,3.829-2.168
				c0.28-0.839,0.209-1.755-0.195-2.542c-0.404-0.787-1.109-1.376-1.955-1.637l-8.975-2.761C39.329,37.102,39,36.655,39,36.15
				c0-0.635,0.515-1.15,1.15-1.15h12.023c1.16,0,2.263,0.504,3.022,1.38l10.119,11.676c0.974,1.124,2.615,1.386,3.891,0.621
				c0.725-0.435,1.237-1.15,1.417-1.976C70.803,45.875,70.633,45.011,70.154,44.315z"/>
		</g>
		<g>
			<path style="fill:#FFFFFF;" d="M23,47.382c0,0.347,0.18,0.669,0.474,0.851c0.295,0.182,0.663,0.199,0.973,0.044l2-1
				C26.786,47.107,27,46.761,27,46.382V28.618c0-0.346-0.18-0.668-0.474-0.85c-0.295-0.182-0.663-0.199-0.973-0.044l-2,1
				C23.214,28.893,23,29.239,23,29.618V47.382z"/>
		</g>
		<g>
			<g>
				<circle style="fill:#C23023;" cx="48.5" cy="57.5" r="9.5"/>
			</g>
		</g>
		<g>
			<path style="fill:#E54B44;" d="M48.5,48c-5.247,0-9.5,4.253-9.5,9.5c0,2.621,1.061,4.993,2.777,6.711l13.434-13.435
				C53.493,49.062,51.12,48,48.5,48z"/>
		</g>
		<g>
			<g>
				<path style="fill:#FFFFFF;" d="M48.66,50.587c0.383,0,0.686,0.303,0.686,0.687v0.351c0.942,0.112,1.74,0.415,2.475,0.878
					c0.255,0.144,0.479,0.383,0.479,0.767c0,0.495-0.399,0.878-0.894,0.878c-0.16,0-0.319-0.048-0.479-0.144
					c-0.559-0.335-1.102-0.575-1.645-0.703v3.066c2.427,0.606,3.465,1.58,3.465,3.289c0,1.756-1.373,2.922-3.401,3.114v0.958
					c0,0.383-0.303,0.686-0.686,0.686c-0.383,0-0.703-0.303-0.703-0.686v-0.99c-1.198-0.128-2.299-0.559-3.273-1.246
					c-0.271-0.176-0.431-0.431-0.431-0.767c0-0.495,0.383-0.878,0.878-0.878c0.191,0,0.383,0.064,0.527,0.176
					c0.75,0.542,1.485,0.91,2.363,1.069v-3.146c-2.331-0.606-3.417-1.484-3.417-3.289c0-1.708,1.357-2.89,3.353-3.049v-0.335
					C47.957,50.89,48.276,50.587,48.66,50.587z M48.021,56.031v-2.826c-1.021,0.095-1.532,0.638-1.532,1.341
					C46.488,55.217,46.792,55.632,48.021,56.031z M49.282,58.25v2.906c1.022-0.111,1.581-0.623,1.581-1.389
					C50.863,59.065,50.512,58.634,49.282,58.25z"/>
			</g>
		</g>
		<g>
			<path style="fill:#FFEFED;" d="M46.355,23.46c-0.869-0.301-1.811-0.295-2.675,0.02L27,28.739v11.539l25.212-14.556
				C50.464,24.968,48.529,24.214,46.355,23.46z"/>
		</g>
		<g>
			<path style="fill:#FFFFFF;" d="M63.536,60.177c-1.004-0.354-2.117,0.06-2.646,0.984c-0.317,0.554-0.377,1.219-0.166,1.821
				c0.211,0.602,0.673,1.084,1.267,1.319l0.532,0.21l1.749-4.076L63.536,60.177z"/>
		</g>
		<g>
			<path style="fill:#FFFFFF;" d="M46.432,45.386c1.019,0.308,2.112-0.155,2.598-1.103c0.292-0.568,0.322-1.234,0.084-1.827
				c-0.238-0.592-0.722-1.052-1.325-1.261l-0.541-0.187l-1.562,4.15L46.432,45.386z"/>
		</g>
	</g>
</g>
<g id="R-Red" style="display:none;">
	<g style="display:inline;">
		<circle style="fill:#FABBAF;" cx="55" cy="55" r="55"/>
	</g>
	<g style="display:inline;">
		<g>
			<path style="fill:#FFD7D4;" d="M67.82,82.203L67.82,82.203h17.382c0.067,0,0.124,0.025,0.187,0.037
				c-1.034-4.287-2.573-8.5-4.688-12.629c-1.416-2.764-3.713-4.979-6.523-6.302l-10.292-4.844c-1.58-0.743-3.463-0.326-4.582,1.016
				c-0.75,0.9-1.048,2.095-0.808,3.242c0.24,1.147,0.992,2.122,2.04,2.646l8.666,4.834H49.686c-1.631,0-3.237-0.399-4.679-1.163
				l-12.43-6.58c-1.378-0.729-3.081-0.376-4.055,0.841c-0.585,0.731-0.826,1.68-0.66,2.603c0.166,0.922,0.722,1.728,1.525,2.211
				l14.726,8.835c1.382,0.829,2.896,1.415,4.477,1.731l16.301,2.209c1.004,0.137,1.896,0.651,2.527,1.406
				C67.544,82.239,67.679,82.203,67.82,82.203z"/>
		</g>
		<g>
			<path style="fill:#FFEFED;" d="M74.178,63.309l-10.292-4.844c-1.58-0.744-3.463-0.326-4.582,1.016
				c-0.75,0.9-1.048,2.095-0.808,3.242c0.24,1.147,0.992,2.122,2.04,2.646l8.666,4.833H49.686c-1.631,0-3.237-0.399-4.679-1.162
				l-12.43-6.58c-1.378-0.729-3.081-0.376-4.055,0.841c-0.585,0.731-0.826,1.68-0.66,2.603c0.166,0.922,0.722,1.728,1.525,2.21
				l14.726,8.835c1.382,0.829,2.896,1.415,4.477,1.73l10.653,1.444l20.625-11.908C78.455,66.104,76.495,64.399,74.178,63.309z"/>
		</g>
		<g>
			<path style="fill:#FFFFFF;" d="M87,83.417c0-0.66-0.535-1.194-1.194-1.194H65.045c-0.414,0-0.798,0.214-1.016,0.566
				c-0.217,0.353-0.237,0.793-0.052,1.162l1.194,2.389c0.203,0.405,0.616,0.66,1.068,0.66h19.566C86.465,87,87,86.465,87,85.806
				V83.417z"/>
		</g>
		<g>
			<path style="fill:#FFD7D4;" d="M70.154,44.315L61,31c-2.513-2.513-7.395-5.026-14.645-7.54c-0.869-0.301-1.811-0.295-2.675,0.02
				L27,28.739v16.97l3.795-2.173c0.783-0.348,1.656-0.435,2.492-0.25l13.821,3.071c1.643,0.365,3.296-0.571,3.829-2.168
				c0.28-0.839,0.209-1.755-0.195-2.542c-0.404-0.787-1.109-1.376-1.955-1.637l-8.975-2.761C39.329,37.102,39,36.655,39,36.15
				c0-0.635,0.515-1.15,1.15-1.15h12.023c1.16,0,2.263,0.504,3.022,1.38l10.119,11.676c0.974,1.124,2.615,1.386,3.891,0.621
				c0.725-0.435,1.237-1.15,1.417-1.976C70.803,45.875,70.633,45.011,70.154,44.315z"/>
		</g>
		<g>
			<path style="fill:#FFFFFF;" d="M23,47.382c0,0.347,0.18,0.669,0.474,0.851c0.295,0.182,0.663,0.199,0.973,0.044l2-1
				C26.786,47.107,27,46.761,27,46.382V28.618c0-0.346-0.18-0.668-0.474-0.85c-0.295-0.182-0.663-0.199-0.973-0.044l-2,1
				C23.214,28.893,23,29.239,23,29.618V47.382z"/>
		</g>
		<g>
			<g>
				<circle style="fill:#C23023;" cx="48.5" cy="57.5" r="9.5"/>
			</g>
		</g>
		<g>
			<path style="fill:#E54B44;" d="M48.5,48c-5.247,0-9.5,4.253-9.5,9.5c0,2.621,1.061,4.993,2.777,6.711l13.434-13.435
				C53.493,49.062,51.12,48,48.5,48z"/>
		</g>
		<g>
			<g>
				<path style="fill:#FFFFFF;" d="M48.66,50.587c0.383,0,0.686,0.303,0.686,0.687v0.351c0.942,0.112,1.74,0.415,2.475,0.878
					c0.255,0.144,0.479,0.383,0.479,0.767c0,0.495-0.399,0.878-0.894,0.878c-0.16,0-0.319-0.048-0.479-0.144
					c-0.559-0.335-1.102-0.575-1.645-0.703v3.066c2.427,0.606,3.465,1.58,3.465,3.289c0,1.756-1.373,2.922-3.401,3.114v0.958
					c0,0.383-0.303,0.686-0.686,0.686c-0.383,0-0.703-0.303-0.703-0.686v-0.99c-1.198-0.128-2.299-0.559-3.273-1.246
					c-0.271-0.176-0.431-0.431-0.431-0.767c0-0.495,0.383-0.878,0.878-0.878c0.191,0,0.383,0.064,0.527,0.176
					c0.75,0.542,1.485,0.91,2.363,1.069v-3.146c-2.331-0.606-3.417-1.484-3.417-3.289c0-1.708,1.357-2.89,3.353-3.049v-0.335
					C47.957,50.89,48.276,50.587,48.66,50.587z M48.02,56.031v-2.826c-1.021,0.095-1.532,0.638-1.532,1.341
					C46.488,55.217,46.791,55.632,48.02,56.031z M49.282,58.25v2.906c1.022-0.111,1.581-0.623,1.581-1.389
					C50.863,59.065,50.512,58.634,49.282,58.25z"/>
			</g>
		</g>
		<g>
			<path style="fill:#FFEFED;" d="M46.355,23.46c-0.869-0.301-1.811-0.295-2.675,0.02L27,28.739v11.539l25.212-14.556
				C50.464,24.968,48.529,24.214,46.355,23.46z"/>
		</g>
		<g>
			<path style="fill:#FFFFFF;" d="M63.536,60.177c-1.004-0.354-2.117,0.06-2.646,0.984c-0.317,0.554-0.377,1.219-0.166,1.821
				c0.211,0.602,0.673,1.084,1.267,1.319l0.532,0.21l1.749-4.076L63.536,60.177z"/>
		</g>
		<g>
			<path style="fill:#FFFFFF;" d="M46.432,45.386c1.019,0.308,2.112-0.155,2.598-1.103c0.292-0.568,0.322-1.234,0.084-1.827
				c-0.238-0.592-0.722-1.052-1.325-1.261l-0.541-0.187l-1.562,4.15L46.432,45.386z"/>
		</g>
	</g>
</g>
<g id="Yellow" style="display:none;">
	<g style="display:inline;">
		<g>
			<path style="fill:#FFE9A1;" d="M67.82,82.203L67.82,82.203h17.382c0.067,0,0.124,0.025,0.187,0.037
				c-1.034-4.287-2.573-8.5-4.688-12.629c-1.416-2.764-3.713-4.979-6.523-6.302l-10.292-4.844c-1.58-0.743-3.463-0.326-4.582,1.016
				c-0.75,0.9-1.048,2.095-0.808,3.242c0.24,1.147,0.992,2.122,2.04,2.646l8.666,4.834H49.686c-1.631,0-3.237-0.399-4.679-1.163
				l-12.43-6.58c-1.378-0.729-3.081-0.376-4.055,0.841c-0.585,0.731-0.826,1.68-0.66,2.603c0.166,0.922,0.722,1.728,1.525,2.211
				l14.726,8.835c1.382,0.829,2.896,1.415,4.477,1.731l16.301,2.209c1.004,0.137,1.896,0.651,2.527,1.406
				C67.544,82.239,67.679,82.203,67.82,82.203z"/>
		</g>
		<g>
			<path style="fill:#FFF5D9;" d="M74.178,63.309l-10.292-4.844c-1.58-0.744-3.463-0.326-4.582,1.016
				c-0.75,0.9-1.048,2.095-0.808,3.242c0.24,1.147,0.992,2.122,2.04,2.646l8.666,4.833H49.686c-1.631,0-3.237-0.399-4.679-1.162
				l-12.43-6.58c-1.378-0.729-3.081-0.376-4.055,0.841c-0.585,0.731-0.826,1.68-0.66,2.603c0.166,0.922,0.722,1.728,1.525,2.21
				l14.726,8.835c1.382,0.829,2.896,1.415,4.477,1.73l10.653,1.444l20.625-11.908C78.455,66.104,76.495,64.399,74.178,63.309z"/>
		</g>
		<g>
			<path style="fill:#FFFFFF;" d="M87,83.417c0-0.66-0.535-1.194-1.194-1.194H65.045c-0.414,0-0.798,0.214-1.016,0.566
				c-0.217,0.353-0.237,0.793-0.052,1.162l1.194,2.389c0.203,0.405,0.616,0.66,1.068,0.66h19.566C86.465,87,87,86.465,87,85.806
				V83.417z"/>
		</g>
		<g>
			<path style="fill:#FFE9A1;" d="M70.154,44.315L61,31c-2.513-2.513-7.395-5.026-14.645-7.54c-0.869-0.301-1.811-0.295-2.675,0.02
				L27,28.739v16.97l3.795-2.173c0.783-0.348,1.656-0.435,2.492-0.25l13.821,3.071c1.643,0.365,3.296-0.571,3.829-2.168
				c0.28-0.839,0.209-1.755-0.195-2.542c-0.404-0.787-1.109-1.376-1.955-1.637l-8.975-2.761C39.329,37.102,39,36.655,39,36.15
				c0-0.635,0.515-1.15,1.15-1.15h12.023c1.16,0,2.263,0.504,3.022,1.38l10.119,11.676c0.974,1.124,2.615,1.386,3.891,0.621
				c0.725-0.435,1.237-1.15,1.417-1.976C70.803,45.875,70.633,45.011,70.154,44.315z"/>
		</g>
		<g>
			<path style="fill:#FFFFFF;" d="M23,47.382c0,0.347,0.18,0.669,0.474,0.851c0.295,0.182,0.663,0.199,0.973,0.044l2-1
				C26.786,47.107,27,46.761,27,46.382V28.618c0-0.346-0.18-0.668-0.474-0.85c-0.295-0.182-0.663-0.199-0.973-0.044l-2,1
				C23.214,28.893,23,29.239,23,29.618V47.382z"/>
		</g>
		<g>
			<g>
				<circle style="fill:#E07000;" cx="48.5" cy="57.5" r="9.5"/>
			</g>
		</g>
		<g>
			<path style="fill:#FA9200;" d="M48.5,48c-5.247,0-9.5,4.253-9.5,9.5c0,2.621,1.061,4.993,2.777,6.711l13.434-13.435
				C53.493,49.062,51.12,48,48.5,48z"/>
		</g>
		<g>
			<g>
				<path style="fill:#FFFFFF;" d="M48.66,50.587c0.383,0,0.686,0.303,0.686,0.687v0.351c0.942,0.112,1.74,0.415,2.475,0.878
					c0.255,0.144,0.479,0.383,0.479,0.767c0,0.495-0.399,0.878-0.894,0.878c-0.16,0-0.319-0.048-0.479-0.144
					c-0.559-0.335-1.102-0.575-1.645-0.703v3.066c2.427,0.606,3.465,1.58,3.465,3.289c0,1.756-1.373,2.922-3.401,3.114v0.958
					c0,0.383-0.303,0.686-0.686,0.686c-0.383,0-0.703-0.303-0.703-0.686v-0.99c-1.198-0.128-2.299-0.559-3.273-1.246
					c-0.271-0.176-0.431-0.431-0.431-0.767c0-0.495,0.383-0.878,0.878-0.878c0.191,0,0.383,0.064,0.527,0.176
					c0.75,0.542,1.485,0.91,2.363,1.069v-3.146c-2.331-0.606-3.417-1.484-3.417-3.289c0-1.708,1.357-2.89,3.353-3.049v-0.335
					C47.957,50.89,48.276,50.587,48.66,50.587z M48.02,56.031v-2.826c-1.021,0.095-1.532,0.638-1.532,1.341
					C46.488,55.217,46.791,55.632,48.02,56.031z M49.282,58.25v2.906c1.022-0.111,1.581-0.623,1.581-1.389
					C50.863,59.065,50.512,58.634,49.282,58.25z"/>
			</g>
		</g>
		<g>
			<path style="fill:#FFF5D9;" d="M46.355,23.46c-0.869-0.301-1.811-0.295-2.675,0.02L27,28.739v11.539l25.212-14.556
				C50.464,24.968,48.529,24.214,46.355,23.46z"/>
		</g>
		<g>
			<path style="fill:#FFFFFF;" d="M63.536,60.177c-1.004-0.354-2.117,0.06-2.646,0.984c-0.317,0.554-0.377,1.219-0.166,1.821
				c0.211,0.602,0.673,1.084,1.267,1.319l0.532,0.21l1.749-4.076L63.536,60.177z"/>
		</g>
		<g>
			<path style="fill:#FFFFFF;" d="M46.432,45.386c1.019,0.308,2.112-0.155,2.598-1.103c0.292-0.568,0.322-1.234,0.084-1.827
				c-0.238-0.592-0.722-1.052-1.325-1.261l-0.541-0.187l-1.562,4.15L46.432,45.386z"/>
		</g>
	</g>
</g>
<g id="R-Yellow" style="display:none;">
	<g style="display:inline;">
		<circle style="fill:#FFD75E;" cx="55" cy="55" r="55"/>
	</g>
	<g style="display:inline;">
		<g>
			<path style="fill:#FFE9A1;" d="M67.82,82.203L67.82,82.203h17.382c0.067,0,0.124,0.025,0.187,0.037
				c-1.034-4.287-2.573-8.5-4.688-12.629c-1.416-2.764-3.713-4.979-6.523-6.302l-10.292-4.844c-1.58-0.743-3.463-0.326-4.582,1.016
				c-0.75,0.9-1.048,2.095-0.808,3.242c0.24,1.147,0.992,2.122,2.04,2.646l8.666,4.834H49.686c-1.631,0-3.237-0.399-4.679-1.163
				l-12.43-6.58c-1.378-0.729-3.081-0.376-4.055,0.841c-0.585,0.731-0.826,1.68-0.66,2.603c0.166,0.922,0.722,1.728,1.525,2.211
				l14.726,8.835c1.382,0.829,2.896,1.415,4.477,1.731l16.301,2.209c1.004,0.137,1.897,0.651,2.527,1.406
				C67.544,82.239,67.679,82.203,67.82,82.203z"/>
		</g>
		<g>
			<path style="fill:#FFF5D9;" d="M74.178,63.309l-10.292-4.844c-1.58-0.744-3.463-0.326-4.582,1.016
				c-0.75,0.9-1.048,2.095-0.808,3.242c0.24,1.147,0.992,2.122,2.04,2.646l8.666,4.833H49.686c-1.631,0-3.237-0.399-4.679-1.162
				l-12.43-6.58c-1.378-0.729-3.081-0.376-4.055,0.841c-0.585,0.731-0.826,1.68-0.66,2.603c0.166,0.922,0.722,1.728,1.525,2.21
				l14.726,8.835c1.382,0.829,2.896,1.415,4.477,1.73l10.653,1.444l20.625-11.908C78.455,66.104,76.495,64.399,74.178,63.309z"/>
		</g>
		<g>
			<path style="fill:#FFFFFF;" d="M87,83.417c0-0.66-0.535-1.194-1.194-1.194H65.045c-0.414,0-0.798,0.214-1.016,0.566
				c-0.217,0.353-0.237,0.793-0.052,1.162l1.194,2.389c0.203,0.405,0.616,0.66,1.068,0.66h19.566C86.465,87,87,86.465,87,85.806
				V83.417z"/>
		</g>
		<g>
			<path style="fill:#FFE9A1;" d="M70.154,44.315L61,31c-2.513-2.513-7.394-5.026-14.644-7.54c-0.869-0.301-1.811-0.295-2.675,0.02
				L27,28.739v16.97l3.795-2.173c0.783-0.348,1.656-0.435,2.492-0.25l13.821,3.071c1.643,0.365,3.296-0.571,3.829-2.168
				c0.28-0.839,0.209-1.755-0.195-2.542c-0.404-0.787-1.109-1.376-1.955-1.637l-8.975-2.761C39.329,37.102,39,36.655,39,36.15
				c0-0.635,0.515-1.15,1.15-1.15h12.023c1.16,0,2.263,0.504,3.022,1.38l10.119,11.676c0.974,1.124,2.615,1.386,3.891,0.621
				c0.725-0.435,1.237-1.15,1.417-1.976C70.803,45.875,70.633,45.011,70.154,44.315z"/>
		</g>
		<g>
			<path style="fill:#FFFFFF;" d="M23,47.382c0,0.347,0.18,0.669,0.474,0.851c0.295,0.182,0.663,0.199,0.973,0.044l2-1
				C26.786,47.107,27,46.761,27,46.382V28.618c0-0.346-0.18-0.668-0.474-0.85c-0.295-0.182-0.663-0.199-0.973-0.044l-2,1
				C23.214,28.893,23,29.239,23,29.618V47.382z"/>
		</g>
		<g>
			<g>
				<circle style="fill:#E07000;" cx="48.5" cy="57.5" r="9.5"/>
			</g>
		</g>
		<g>
			<path style="fill:#FA9200;" d="M48.5,48c-5.247,0-9.5,4.253-9.5,9.5c0,2.621,1.061,4.993,2.777,6.711l13.435-13.435
				C53.493,49.062,51.12,48,48.5,48z"/>
		</g>
		<g>
			<g>
				<path style="fill:#FFFFFF;" d="M48.66,50.587c0.383,0,0.687,0.303,0.687,0.687v0.351c0.942,0.112,1.74,0.415,2.475,0.878
					c0.255,0.144,0.479,0.383,0.479,0.767c0,0.495-0.399,0.878-0.894,0.878c-0.16,0-0.319-0.048-0.479-0.144
					c-0.559-0.335-1.102-0.575-1.645-0.703v3.066c2.427,0.606,3.465,1.58,3.465,3.289c0,1.756-1.373,2.922-3.401,3.114v0.958
					c0,0.383-0.303,0.686-0.687,0.686s-0.703-0.303-0.703-0.686v-0.99c-1.198-0.128-2.299-0.559-3.273-1.246
					c-0.271-0.176-0.431-0.431-0.431-0.767c0-0.495,0.383-0.878,0.878-0.878c0.191,0,0.383,0.064,0.527,0.176
					c0.751,0.542,1.485,0.91,2.363,1.069v-3.146c-2.331-0.606-3.417-1.484-3.417-3.289c0-1.708,1.357-2.89,3.353-3.049v-0.335
					C47.957,50.89,48.276,50.587,48.66,50.587z M48.021,56.031v-2.826c-1.021,0.095-1.532,0.638-1.532,1.341
					C46.488,55.217,46.792,55.632,48.021,56.031z M49.282,58.25v2.906c1.022-0.111,1.581-0.623,1.581-1.389
					C50.863,59.065,50.512,58.634,49.282,58.25z"/>
			</g>
		</g>
		<g>
			<path style="fill:#FFF5D9;" d="M46.356,23.46c-0.869-0.301-1.811-0.295-2.675,0.02L27,28.739v11.539l25.212-14.556
				C50.464,24.968,48.529,24.214,46.356,23.46z"/>
		</g>
		<g>
			<path style="fill:#FFFFFF;" d="M63.536,60.177c-1.004-0.354-2.117,0.06-2.646,0.984c-0.317,0.554-0.377,1.219-0.166,1.821
				c0.211,0.602,0.673,1.084,1.267,1.319l0.532,0.21l1.749-4.076L63.536,60.177z"/>
		</g>
		<g>
			<path style="fill:#FFFFFF;" d="M46.432,45.386c1.019,0.308,2.112-0.155,2.598-1.103c0.292-0.568,0.322-1.234,0.084-1.827
				c-0.238-0.592-0.722-1.052-1.325-1.261l-0.541-0.187l-1.562,4.15L46.432,45.386z"/>
		</g>
	</g>
</g>
</svg>
