<?xml version="1.0" encoding="UTF-8" standalone="no"?>
<svg width="240px" height="81px" viewBox="0 0 240 81" version="1.1" xmlns="http://www.w3.org/2000/svg" xmlns:xlink="http://www.w3.org/1999/xlink" xmlns:sketch="http://www.bohemiancoding.com/sketch/ns">
    <!-- Generator: Sketch 3.2.2 (9983) - http://www.bohemiancoding.com/sketch -->
    <title>pretzels</title>
    <desc>Created with Sketch.</desc>
    <defs></defs>
    <g id="Page-1" stroke="none" stroke-width="1" fill="none" fill-rule="evenodd" sketch:type="MSPage">
        <g id="pie" sketch:type="MSLayerGroup" transform="translate(0.000000, -10.000000)">
            <g id="Main" sketch:type="MSShapeGroup">
                <g id="Profile-6">
                    <g id="Tile-3">
                        <g id="pie">
                            <rect id="Rectangle-264" fill="#60ABE1" x="0" y="0" width="240" height="120"></rect>
                            <rect id="Rectangle-346" fill="#439FE1" x="0" y="86" width="240" height="34"></rect>
                        </g>
                    </g>
                </g>
            </g>
        </g>
        <g id="Group" sketch:type="MSLayerGroup" transform="translate(97.000000, 23.000000)">
            <path d="M20.9426906,36.0570422 C16.7692219,31.8835734 16.7692219,25.1166047 20.9426906,20.9431359 C25.1161594,16.7687766 31.8831281,16.7687766 36.0565969,20.9431359 C40.2309563,25.1166047 40.2309563,31.8835734 36.0565969,36.0570422 C31.8831281,40.2305109 25.1161594,40.2305109 20.9426906,36.0570422 M48.6527062,8.34702656 C37.5225656,-2.78222344 19.4776125,-2.78222344 8.34747188,8.34702656 C-2.78266875,19.4771672 -2.78266875,37.5230109 8.34747188,48.6522609 C19.4776125,59.7824016 37.5225656,59.7824016 48.6527062,48.6522609 C59.7819562,37.5230109 59.7828469,19.4771672 48.6527062,8.34702656" id="Fill-3468" fill="#F4D0A1" sketch:type="MSShapeGroup"></path>
            <path d="M48.6525281,48.6525281 C46.9140281,50.3910281 45.0125438,51.8516531 42.990825,53.0415281 C35.8934344,45.4284656 44.0925281,44.0925281 38.5759969,38.5759969 C37.2347156,37.2347156 36.0947156,36.8882625 35.0874188,36.9140906 C35.4214031,36.6558094 35.7482625,36.3654656 36.0573094,36.0573094 C40.2325594,31.8820594 40.2325594,25.1177625 36.0573094,20.9425125 C31.8820594,16.7672625 25.1177625,16.7672625 20.9425125,20.9425125 C19.6831688,22.2027469 15.274575,25.3511062 10.2363094,20.3128406 C3.30902813,13.3855594 8.34729375,8.34729375 8.34729375,8.34729375 C19.4756531,-2.78106563 37.5241688,-2.78106563 48.6525281,8.34729375 C59.7799969,19.4756531 59.7799969,37.5241687 48.6525281,48.6525281" id="Fill-3469" fill="#84462D" sketch:type="MSShapeGroup"></path>
            <path d="M20.9426906,20.9426906 C19.6833469,22.2020344 15.2747531,25.3512844 10.2364875,20.3130188 C3.59955,13.6751906 7.94401875,8.7758625 8.31897187,8.3768625 C-2.78177812,19.509675 -2.77287188,37.5323625 8.34747188,48.6527062 L20.9426906,36.0565969 C16.7692219,31.8831281 16.7692219,25.1161594 20.9426906,20.9426906" id="Fill-3470" fill="#F9E1C2" sketch:type="MSShapeGroup"></path>
            <path d="M8.34747188,8.34747187 C8.337675,8.35726875 8.32876875,8.36706562 8.3198625,8.3768625 C7.94401875,8.7758625 3.59955,13.6751906 10.2364875,20.3130187 C15.2747531,25.3512844 19.6833469,22.2020344 20.9426906,20.9426906 C25.1179406,16.7674406 31.8822375,16.7674406 36.0574875,20.9426906 L48.6527063,8.34747187 C37.5243469,-2.7808875 19.4749406,-2.7808875 8.34747188,8.34747187" id="Fill-3471" fill="#9C6144" sketch:type="MSShapeGroup"></path>
            <path d="M51.1715719,23.4617344 C50.4759938,24.1573125 49.3484625,24.1573125 48.6528844,23.4617344 C47.9564156,22.7661562 47.9564156,21.638625 48.6528844,20.9430469 C49.3484625,20.2474687 50.4759938,20.2474687 51.1715719,20.9430469 C51.86715,21.638625 51.86715,22.7661562 51.1715719,23.4617344" id="Fill-3472" fill="#FACB1B" sketch:type="MSShapeGroup"></path>
            <path d="M41.7249797,8.97714375 C41.0294016,9.67272187 39.9018703,9.67272187 39.2062922,8.97714375 C38.5107141,8.28156563 38.5107141,7.15403438 39.2062922,6.45845625 C39.9018703,5.76287813 41.0294016,5.76287813 41.7249797,6.45845625 C42.4205578,7.15403438 42.4205578,8.28156563 41.7249797,8.97714375" id="Fill-3473" fill="#6FDAF1" sketch:type="MSShapeGroup"></path>
            <path d="M29.1296719,14.0154094 C28.4340937,14.7109875 27.3065625,14.7109875 26.6109844,14.0154094 C25.9154062,13.3198312 25.9154062,12.1923 26.6109844,11.4967219 C27.3065625,10.8002531 28.4340937,10.8002531 29.1296719,11.4967219 C29.82525,12.1923 29.82525,13.3198312 29.1296719,14.0154094" id="Fill-3474" fill="#F89392" sketch:type="MSShapeGroup"></path>
            <path d="M14.9599172,15.5898562 C13.7424328,16.8073406 11.7688078,16.8073406 10.5513234,15.5898562 C9.33472969,14.3723719 9.33472969,12.3987469 10.5513234,11.1812625 C11.7688078,9.96377812 13.7424328,9.96377812 14.9599172,11.1812625 C16.1774016,12.3987469 16.1774016,14.3723719 14.9599172,15.5898562" id="Fill-3475" fill="#FBED9A" sketch:type="MSShapeGroup"></path>
            <path d="M50.8567359,33.8531016 C49.6392516,35.0705859 47.6656266,35.0705859 46.4481422,33.8531016 C45.2306578,32.6356172 45.2306578,30.6619922 46.4481422,29.4445078 C47.6656266,28.2270234 49.6392516,28.2270234 50.8567359,29.4445078 C52.0742203,30.6619922 52.0742203,32.6356172 50.8567359,33.8531016" id="Fill-3476" fill="#FA5655" sketch:type="MSShapeGroup"></path>
            <path d="M46.7632453,44.2440234 C46.0676672,44.9396016 44.9401359,44.9396016 44.2436672,44.2440234 C43.5480891,43.5484453 43.5480891,42.4209141 44.2436672,41.7253359 C44.9401359,41.0297578 46.0676672,41.0297578 46.7632453,41.7253359 C47.4588234,42.4209141 47.4588234,43.5484453 46.7632453,44.2440234" id="Fill-3477" fill="#21B2D1" sketch:type="MSShapeGroup"></path>
        </g>
    </g>
</svg>