<?xml version="1.0" encoding="iso-8859-1"?>
<!-- Generator: Adobe Illustrator 17.1.0, SVG Export Plug-In . SVG Version: 6.00 Build 0)  -->
<!DOCTYPE svg PUBLIC "-//W3C//DTD SVG 1.0//EN" "http://www.w3.org/TR/2001/REC-SVG-20010904/DTD/svg10.dtd">
<svg version="1.0" xmlns="http://www.w3.org/2000/svg" xmlns:xlink="http://www.w3.org/1999/xlink" x="0px" y="0px" width="110px"
	 height="110px" viewBox="0 0 110 110" style="enable-background:new 0 0 110 110;" xml:space="preserve">
<g id="Artboard" style="display:none;">
	<rect x="-558.5" y="-33.5" style="display:inline;fill:#808080;stroke:#000000;stroke-miterlimit:10;" width="1349" height="445"/>
</g>
<g id="R-Multicolor" style="display:none;">
	<circle style="display:inline;fill:#E04F5F;" cx="55" cy="55" r="55"/>
	<g style="display:inline;">
		<path style="fill:#FFFFFF;" d="M79,75c0,6.627-5.373,12-12,12H33c-1.105,0-2-0.895-2-2V25c0-1.105,0.895-2,2-2h44
			c1.105,0,2,0.895,2,2V75z"/>
		<path style="fill:#E2E4E5;" d="M75,45c0,3.314-2.686,6-6,6H37c-1.105,0-2-0.895-2-2V29c0-1.105,0.895-2,2-2h36
			c1.105,0,2,0.895,2,2V45z"/>
		<circle style="fill:#FA5655;" cx="72.5" cy="64.5" r="2.5"/>
		<rect x="42" y="31" style="fill:#17B198;" width="27" height="16"/>
		<circle style="fill:#FA5655;" cx="39" cy="35" r="1"/>
		<path style="fill:#CFD3D4;" d="M53,60.667c0-0.552-0.448-1-1-1h-2.667c-0.552,0-1-0.448-1-1V56c0-0.552-0.448-1-1-1h-2.667
			c-0.552,0-1,0.448-1,1v2.667c0,0.552-0.448,1-1,1H40c-0.552,0-1,0.448-1,1v2.667c0,0.552,0.448,1,1,1h2.667c0.552,0,1,0.448,1,1
			V68c0,0.552,0.448,1,1,1h2.667c0.552,0,1-0.448,1-1v-2.667c0-0.552,0.448-1,1-1H52c0.552,0,1-0.448,1-1V60.667z"/>
		<circle style="fill:#FA5655;" cx="64.5" cy="68.5" r="2.5"/>
		<g>
			<path style="fill:#CFD3D4;" d="M50.492,79.462c-0.32-0.64-0.061-1.417,0.579-1.737l5.178-2.589c0.64-0.32,1.417-0.06,1.737,0.579
				c0.32,0.64,0.061,1.417-0.579,1.737l-5.178,2.589C51.591,80.36,50.812,80.103,50.492,79.462z"/>
		</g>
		<g>
			<path style="fill:#CFD3D4;" d="M40.137,79.462c-0.32-0.64-0.061-1.417,0.579-1.737l5.178-2.589
				c0.639-0.32,1.417-0.06,1.737,0.579c0.32,0.64,0.061,1.417-0.579,1.737l-5.178,2.589C41.236,80.36,40.457,80.103,40.137,79.462z"
				/>
		</g>
		<polygon style="fill:#4AC3AF;" points="42,31 42,47 46.163,47 62.163,31 		"/>
	</g>
</g>
<g id="Multicolor">
	<g>
		<path style="fill:#FFFFFF;" d="M79,75c0,6.627-5.373,12-12,12H33c-1.105,0-2-0.895-2-2V25c0-1.105,0.895-2,2-2h44
			c1.105,0,2,0.895,2,2V75z"/>
		<path style="fill:#E2E4E5;" d="M75,45c0,3.314-2.686,6-6,6H37c-1.105,0-2-0.895-2-2V29c0-1.105,0.895-2,2-2h36
			c1.105,0,2,0.895,2,2V45z"/>
		<circle style="fill:#FA5655;" cx="72.5" cy="64.5" r="2.5"/>
		<rect x="42" y="31" style="fill:#17B198;" width="27" height="16"/>
		<circle style="fill:#FA5655;" cx="39" cy="35" r="1"/>
		<path style="fill:#CFD3D4;" d="M53,60.667c0-0.552-0.448-1-1-1h-2.667c-0.552,0-1-0.448-1-1V56c0-0.552-0.448-1-1-1h-2.667
			c-0.552,0-1,0.448-1,1v2.667c0,0.552-0.448,1-1,1H40c-0.552,0-1,0.448-1,1v2.667c0,0.552,0.448,1,1,1h2.667c0.552,0,1,0.448,1,1
			V68c0,0.552,0.448,1,1,1h2.667c0.552,0,1-0.448,1-1v-2.667c0-0.552,0.448-1,1-1H52c0.552,0,1-0.448,1-1V60.667z"/>
		<circle style="fill:#FA5655;" cx="64.5" cy="68.5" r="2.5"/>
		<g>
			<path style="fill:#CFD3D4;" d="M50.492,79.462c-0.32-0.64-0.061-1.417,0.579-1.737l5.178-2.589c0.64-0.32,1.417-0.06,1.737,0.579
				c0.32,0.64,0.061,1.417-0.579,1.737l-5.178,2.589C51.591,80.36,50.812,80.103,50.492,79.462z"/>
		</g>
		<g>
			<path style="fill:#CFD3D4;" d="M40.137,79.462c-0.32-0.64-0.061-1.417,0.579-1.737l5.178-2.589
				c0.639-0.32,1.417-0.06,1.737,0.579c0.32,0.64,0.061,1.417-0.579,1.737l-5.178,2.589C41.236,80.36,40.457,80.103,40.137,79.462z"
				/>
		</g>
		<polygon style="fill:#4AC3AF;" points="42,31 42,47 46.163,47 62.163,31 		"/>
	</g>
</g>
<g id="Blue" style="display:none;">
	<g style="display:inline;">
		<g>
			<path style="fill:#FFFFFF;" d="M79,74.999c0,6.627-5.373,12-12,12H33c-1.104,0-2-0.896-2-2v-60c0-1.104,0.896-2,2-2h44
				c1.104,0,2,0.896,2,2V74.999z"/>
		</g>
		<g>
			<path style="fill:#BBE7F2;" d="M75,44.999c0,3.313-2.686,6-6,6H37c-1.104,0-2-0.896-2-2v-20c0-1.104,0.896-2,2-2h36
				c1.104,0,2,0.896,2,2V44.999z"/>
		</g>
		<g>
			<circle style="fill:#009FC7;" cx="72.5" cy="64.499" r="2.5"/>
		</g>
		<g>
			<rect x="42" y="30.999" style="fill:#009FC7;" width="27" height="16"/>
		</g>
		<g>
			<circle style="fill:#0F6175;" cx="39" cy="34.999" r="1"/>
		</g>
		<g>
			<path style="fill:#00B7E5;" d="M53,60.665c0-0.552-0.448-1-1-1h-2.667c-0.552,0-1-0.448-1-1v-2.667c0-0.552-0.448-1-1-1h-2.667
				c-0.552,0-1,0.448-1,1v2.667c0,0.552-0.448,1-1,1H40c-0.552,0-1,0.448-1,1v2.667c0,0.552,0.448,1,1,1h2.667c0.552,0,1,0.448,1,1
				v2.666c0,0.552,0.448,1,1,1h2.667c0.552,0,1-0.448,1-1v-2.666c0-0.552,0.448-1,1-1H52c0.552,0,1-0.448,1-1V60.665z"/>
		</g>
		<g>
			<circle style="fill:#009FC7;" cx="64.5" cy="68.499" r="2.5"/>
		</g>
		<g>
			<g>
				<path style="fill:#BBE7F2;" d="M50.492,79.461c-0.32-0.639-0.06-1.417,0.579-1.736l5.177-2.589
					c0.639-0.32,1.417-0.061,1.737,0.579c0.32,0.64,0.06,1.417-0.579,1.736l-5.177,2.589C51.591,80.359,50.812,80.101,50.492,79.461
					z"/>
			</g>
		</g>
		<g>
			<g>
				<path style="fill:#BBE7F2;" d="M40.137,79.461c-0.32-0.639-0.06-1.417,0.579-1.736l5.177-2.589
					c0.639-0.32,1.417-0.061,1.737,0.579c0.32,0.64,0.06,1.417-0.579,1.736l-5.178,2.589C41.236,80.359,40.457,80.101,40.137,79.461
					z"/>
			</g>
		</g>
		<g>
			<polygon style="fill:#00B7E5;" points="42,30.999 42,46.999 46.163,46.999 62.163,30.999 			"/>
		</g>
	</g>
</g>
<g id="R-Blue" style="display:none;">
	<g style="display:inline;">
		<circle style="fill:#81D2EB;" cx="55" cy="55" r="55"/>
	</g>
	<g style="display:inline;">
		<g>
			<path style="fill:#FFFFFF;" d="M79,75c0,6.627-5.373,12-12,12H33c-1.104,0-2-0.896-2-2V25c0-1.104,0.896-2,2-2h44
				c1.104,0,2,0.896,2,2V75z"/>
		</g>
		<g>
			<path style="fill:#BBE7F2;" d="M75,45c0,3.314-2.686,6-6,6H37c-1.104,0-2-0.896-2-2V29c0-1.104,0.896-2,2-2h36
				c1.104,0,2,0.896,2,2V45z"/>
		</g>
		<g>
			<circle style="fill:#009FC7;" cx="72.5" cy="64.5" r="2.5"/>
		</g>
		<g>
			<rect x="42" y="31" style="fill:#009FC7;" width="27" height="16"/>
		</g>
		<g>
			<circle style="fill:#0F6175;" cx="39" cy="35" r="1"/>
		</g>
		<g>
			<path style="fill:#00B7E5;" d="M53,60.667c0-0.552-0.448-1-1-1h-2.667c-0.552,0-1-0.448-1-1V56c0-0.552-0.448-1-1-1h-2.667
				c-0.552,0-1,0.448-1,1v2.667c0,0.552-0.448,1-1,1H40c-0.552,0-1,0.448-1,1v2.667c0,0.552,0.448,1,1,1h2.667c0.552,0,1,0.448,1,1
				V68c0,0.552,0.448,1,1,1h2.667c0.552,0,1-0.448,1-1v-2.666c0-0.552,0.448-1,1-1H52c0.552,0,1-0.448,1-1V60.667z"/>
		</g>
		<g>
			<circle style="fill:#009FC7;" cx="64.5" cy="68.5" r="2.5"/>
		</g>
		<g>
			<g>
				<path style="fill:#BBE7F2;" d="M50.492,79.462c-0.32-0.639-0.06-1.417,0.579-1.736l5.177-2.589
					c0.639-0.32,1.417-0.06,1.737,0.579c0.32,0.64,0.06,1.417-0.579,1.736l-5.177,2.589C51.591,80.36,50.812,80.103,50.492,79.462z"
					/>
			</g>
		</g>
		<g>
			<g>
				<path style="fill:#BBE7F2;" d="M40.137,79.462c-0.32-0.639-0.06-1.417,0.579-1.736l5.177-2.589
					c0.639-0.32,1.417-0.06,1.737,0.579c0.32,0.64,0.061,1.417-0.579,1.736l-5.178,2.589C41.236,80.36,40.457,80.103,40.137,79.462z
					"/>
			</g>
		</g>
		<g>
			<polygon style="fill:#00B7E5;" points="42,31 42,47 46.163,47 62.163,31 			"/>
		</g>
	</g>
</g>
<g id="Green" style="display:none;">
	<g style="display:inline;">
		<g>
			<path style="fill:#FFFFFF;" d="M79,75c0,6.627-5.373,12-12,12H33c-1.104,0-2-0.896-2-2V25c0-1.104,0.896-2,2-2h44
				c1.104,0,2,0.896,2,2V75z"/>
		</g>
		<g>
			<path style="fill:#AAF0E9;" d="M75,45c0,3.314-2.686,6-6,6H37c-1.104,0-2-0.896-2-2V29c0-1.104,0.896-2,2-2h36
				c1.104,0,2,0.896,2,2V45z"/>
		</g>
		<g>
			<circle style="fill:#00B8A5;" cx="72.5" cy="64.5" r="2.5"/>
		</g>
		<g>
			<rect x="42" y="31" style="fill:#00B8A5;" width="27" height="16"/>
		</g>
		<g>
			<circle style="fill:#14635B;" cx="39" cy="35" r="1"/>
		</g>
		<g>
			<path style="fill:#00D6C1;" d="M53,60.667c0-0.552-0.448-1-1-1h-2.667c-0.552,0-1-0.448-1-1V56c0-0.552-0.448-1-1-1h-2.667
				c-0.552,0-1,0.448-1,1v2.667c0,0.552-0.448,1-1,1H40c-0.552,0-1,0.448-1,1v2.667c0,0.552,0.448,1,1,1h2.667c0.552,0,1,0.448,1,1
				V68c0,0.552,0.448,1,1,1h2.667c0.552,0,1-0.448,1-1v-2.666c0-0.552,0.448-1,1-1H52c0.552,0,1-0.448,1-1V60.667z"/>
		</g>
		<g>
			<circle style="fill:#00B8A5;" cx="64.5" cy="68.5" r="2.5"/>
		</g>
		<g>
			<g>
				<path style="fill:#AAF0E9;" d="M50.492,79.462c-0.32-0.639-0.06-1.417,0.579-1.736l5.178-2.589
					c0.639-0.32,1.417-0.06,1.737,0.579c0.32,0.64,0.061,1.417-0.579,1.736l-5.177,2.589C51.591,80.36,50.812,80.103,50.492,79.462z
					"/>
			</g>
		</g>
		<g>
			<g>
				<path style="fill:#AAF0E9;" d="M40.137,79.462c-0.32-0.639-0.06-1.417,0.579-1.736l5.177-2.589
					c0.639-0.32,1.417-0.06,1.737,0.579c0.32,0.64,0.06,1.417-0.579,1.736l-5.178,2.589C41.236,80.36,40.457,80.103,40.137,79.462z"
					/>
			</g>
		</g>
		<g>
			<polygon style="fill:#00D6C1;" points="42,31 42,47 46.163,47 62.163,31 			"/>
		</g>
	</g>
</g>
<g id="R-Green" style="display:none;">
	<g style="display:inline;">
		<circle style="fill:#87E0C8;" cx="55" cy="55" r="55"/>
	</g>
	<g style="display:inline;">
		<g>
			<path style="fill:#FFFFFF;" d="M79,75c0,6.627-5.373,12-12,12H33c-1.104,0-2-0.896-2-2V25c0-1.104,0.896-2,2-2h44
				c1.104,0,2,0.896,2,2V75z"/>
		</g>
		<g>
			<path style="fill:#AAF0E9;" d="M75,45c0,3.314-2.686,6-6,6H37c-1.104,0-2-0.896-2-2V29c0-1.104,0.896-2,2-2h36
				c1.104,0,2,0.896,2,2V45z"/>
		</g>
		<g>
			<circle style="fill:#00B8A5;" cx="72.5" cy="64.5" r="2.5"/>
		</g>
		<g>
			<rect x="42" y="31" style="fill:#00B8A5;" width="27" height="16"/>
		</g>
		<g>
			<circle style="fill:#14635B;" cx="39" cy="35" r="1"/>
		</g>
		<g>
			<path style="fill:#00D6C1;" d="M53,60.667c0-0.552-0.448-1-1-1h-2.667c-0.552,0-1-0.448-1-1V56c0-0.552-0.448-1-1-1h-2.667
				c-0.552,0-1,0.448-1,1v2.667c0,0.552-0.448,1-1,1H40c-0.552,0-1,0.448-1,1v2.667c0,0.552,0.448,1,1,1h2.667c0.552,0,1,0.448,1,1
				V68c0,0.552,0.448,1,1,1h2.667c0.552,0,1-0.448,1-1v-2.666c0-0.552,0.448-1,1-1H52c0.552,0,1-0.448,1-1V60.667z"/>
		</g>
		<g>
			<circle style="fill:#00B8A5;" cx="64.5" cy="68.5" r="2.5"/>
		</g>
		<g>
			<g>
				<path style="fill:#AAF0E9;" d="M50.492,79.462c-0.32-0.639-0.06-1.417,0.579-1.736l5.178-2.589
					c0.639-0.32,1.417-0.06,1.737,0.579c0.32,0.64,0.061,1.417-0.579,1.736l-5.177,2.589C51.591,80.36,50.812,80.103,50.492,79.462z
					"/>
			</g>
		</g>
		<g>
			<g>
				<path style="fill:#AAF0E9;" d="M40.137,79.462c-0.32-0.639-0.06-1.417,0.579-1.736l5.177-2.589
					c0.639-0.32,1.417-0.06,1.737,0.579c0.32,0.64,0.06,1.417-0.579,1.736l-5.178,2.589C41.236,80.36,40.457,80.103,40.137,79.462z"
					/>
			</g>
		</g>
		<g>
			<polygon style="fill:#00D6C1;" points="42,31 42,47 46.163,47 62.163,31 			"/>
		</g>
	</g>
</g>
<g id="Red" style="display:none;">
	<g style="display:inline;">
		<g>
			<path style="fill:#FFFFFF;" d="M79,74.999c0,6.627-5.373,12-12,12H33c-1.104,0-2-0.896-2-2v-60c0-1.104,0.896-2,2-2h44
				c1.104,0,2,0.896,2,2V74.999z"/>
		</g>
		<g>
			<path style="fill:#FFD7D4;" d="M75,44.999c0,3.313-2.686,6-6,6H37c-1.104,0-2-0.896-2-2v-20c0-1.104,0.896-2,2-2h36
				c1.104,0,2,0.896,2,2V44.999z"/>
		</g>
		<g>
			<circle style="fill:#E54B44;" cx="72.5" cy="64.499" r="2.5"/>
		</g>
		<g>
			<rect x="42" y="30.999" style="fill:#E54B44;" width="27" height="16"/>
		</g>
		<g>
			<circle style="fill:#7D261E;" cx="39" cy="34.999" r="1"/>
		</g>
		<g>
			<path style="fill:#FF6C5E;" d="M53,60.665c0-0.552-0.448-1-1-1h-2.667c-0.552,0-1-0.448-1-1v-2.667c0-0.552-0.448-1-1-1h-2.667
				c-0.552,0-1,0.448-1,1v2.667c0,0.552-0.448,1-1,1H40c-0.552,0-1,0.448-1,1v2.667c0,0.552,0.448,1,1,1h2.667c0.552,0,1,0.448,1,1
				v2.666c0,0.552,0.448,1,1,1h2.667c0.552,0,1-0.448,1-1v-2.666c0-0.552,0.448-1,1-1H52c0.552,0,1-0.448,1-1V60.665z"/>
		</g>
		<g>
			<circle style="fill:#E54B44;" cx="64.5" cy="68.499" r="2.5"/>
		</g>
		<g>
			<g>
				<path style="fill:#FFD7D4;" d="M50.492,79.461c-0.32-0.639-0.06-1.417,0.579-1.736l5.178-2.589
					c0.639-0.32,1.417-0.061,1.737,0.579c0.32,0.64,0.061,1.417-0.579,1.736l-5.177,2.589
					C51.591,80.359,50.812,80.101,50.492,79.461z"/>
			</g>
		</g>
		<g>
			<g>
				<path style="fill:#FFD7D4;" d="M40.137,79.461c-0.32-0.639-0.06-1.417,0.579-1.736l5.177-2.589
					c0.639-0.32,1.417-0.061,1.737,0.579c0.32,0.64,0.06,1.417-0.579,1.736l-5.178,2.589C41.236,80.359,40.457,80.101,40.137,79.461
					z"/>
			</g>
		</g>
		<g>
			<polygon style="fill:#FF6C5E;" points="42,30.999 42,46.999 46.163,46.999 62.163,30.999 			"/>
		</g>
	</g>
</g>
<g id="R-Red" style="display:none;">
	<g style="display:inline;">
		<circle style="fill:#FABBAF;" cx="55" cy="55" r="55"/>
	</g>
	<g style="display:inline;">
		<g>
			<path style="fill:#FFFFFF;" d="M79,75c0,6.627-5.373,12-12,12H33c-1.104,0-2-0.896-2-2V25c0-1.104,0.896-2,2-2h44
				c1.104,0,2,0.896,2,2V75z"/>
		</g>
		<g>
			<path style="fill:#FFD7D4;" d="M75,45c0,3.314-2.686,6-6,6H37c-1.104,0-2-0.896-2-2V29c0-1.104,0.896-2,2-2h36
				c1.104,0,2,0.896,2,2V45z"/>
		</g>
		<g>
			<circle style="fill:#E54B44;" cx="72.5" cy="64.5" r="2.5"/>
		</g>
		<g>
			<rect x="42" y="31" style="fill:#E54B44;" width="27" height="16"/>
		</g>
		<g>
			<circle style="fill:#7D261E;" cx="39" cy="35" r="1"/>
		</g>
		<g>
			<path style="fill:#FF6C5E;" d="M53,60.667c0-0.552-0.448-1-1-1h-2.667c-0.552,0-1-0.448-1-1V56c0-0.552-0.448-1-1-1h-2.667
				c-0.552,0-1,0.448-1,1v2.667c0,0.552-0.448,1-1,1H40c-0.552,0-1,0.448-1,1v2.667c0,0.552,0.448,1,1,1h2.667c0.552,0,1,0.448,1,1
				V68c0,0.552,0.448,1,1,1h2.667c0.552,0,1-0.448,1-1v-2.666c0-0.552,0.448-1,1-1H52c0.552,0,1-0.448,1-1V60.667z"/>
		</g>
		<g>
			<circle style="fill:#E54B44;" cx="64.5" cy="68.5" r="2.5"/>
		</g>
		<g>
			<g>
				<path style="fill:#FFD7D4;" d="M50.492,79.462c-0.32-0.639-0.06-1.417,0.579-1.736l5.177-2.589
					c0.639-0.32,1.417-0.06,1.737,0.579c0.32,0.64,0.06,1.417-0.579,1.736l-5.177,2.589C51.591,80.36,50.812,80.103,50.492,79.462z"
					/>
			</g>
		</g>
		<g>
			<g>
				<path style="fill:#FFD7D4;" d="M40.137,79.462c-0.32-0.639-0.06-1.417,0.579-1.736l5.177-2.589
					c0.639-0.32,1.417-0.06,1.737,0.579c0.32,0.64,0.061,1.417-0.579,1.736l-5.178,2.589C41.236,80.36,40.457,80.103,40.137,79.462z
					"/>
			</g>
		</g>
		<g>
			<polygon style="fill:#FF6C5E;" points="42,31 42,47 46.163,47 62.163,31 			"/>
		</g>
	</g>
</g>
<g id="Yellow" style="display:none;">
	<g style="display:inline;">
		<g>
			<path style="fill:#FFFFFF;" d="M79,74.999c0,6.627-5.373,12-12,12H33c-1.104,0-2-0.896-2-2v-60c0-1.104,0.896-2,2-2h44
				c1.104,0,2,0.896,2,2V74.999z"/>
		</g>
		<g>
			<path style="fill:#FFE9A1;" d="M75,44.999c0,3.313-2.686,6-6,6H37c-1.104,0-2-0.896-2-2v-20c0-1.104,0.896-2,2-2h36
				c1.104,0,2,0.896,2,2V44.999z"/>
		</g>
		<g>
			<circle style="fill:#FA9200;" cx="72.5" cy="64.499" r="2.5"/>
		</g>
		<g>
			<rect x="42" y="30.999" style="fill:#FA9200;" width="27" height="16"/>
		</g>
		<g>
			<circle style="fill:#66510D;" cx="39" cy="34.999" r="1"/>
		</g>
		<g>
			<path style="fill:#FFAA00;" d="M53,60.665c0-0.552-0.448-1-1-1h-2.667c-0.552,0-1-0.448-1-1v-2.667c0-0.552-0.448-1-1-1h-2.667
				c-0.552,0-1,0.448-1,1v2.667c0,0.552-0.448,1-1,1H40c-0.552,0-1,0.448-1,1v2.667c0,0.552,0.448,1,1,1h2.667c0.552,0,1,0.448,1,1
				v2.666c0,0.552,0.448,1,1,1h2.667c0.552,0,1-0.448,1-1v-2.666c0-0.552,0.448-1,1-1H52c0.552,0,1-0.448,1-1V60.665z"/>
		</g>
		<g>
			<circle style="fill:#FA9200;" cx="64.5" cy="68.499" r="2.5"/>
		</g>
		<g>
			<g>
				<path style="fill:#FFE9A1;" d="M50.492,79.461c-0.32-0.639-0.06-1.417,0.579-1.736l5.178-2.589
					c0.639-0.32,1.417-0.061,1.737,0.579c0.32,0.64,0.061,1.417-0.579,1.736l-5.177,2.589
					C51.591,80.359,50.812,80.101,50.492,79.461z"/>
			</g>
		</g>
		<g>
			<g>
				<path style="fill:#FFE9A1;" d="M40.137,79.461c-0.32-0.639-0.06-1.417,0.579-1.736l5.177-2.589
					c0.639-0.32,1.417-0.061,1.737,0.579c0.32,0.64,0.06,1.417-0.579,1.736l-5.178,2.589C41.236,80.359,40.457,80.101,40.137,79.461
					z"/>
			</g>
		</g>
		<g>
			<polygon style="fill:#FFAA00;" points="42,30.999 42,46.999 46.163,46.999 62.163,30.999 			"/>
		</g>
	</g>
</g>
<g id="R-Yellow" style="display:none;">
	<g style="display:inline;">
		<circle style="fill:#FFD75E;" cx="55" cy="55" r="55"/>
	</g>
	<g style="display:inline;">
		<g>
			<path style="fill:#FFFFFF;" d="M79,75c0,6.627-5.373,12-12,12H33c-1.104,0-2-0.896-2-2V25c0-1.104,0.896-2,2-2h44
				c1.104,0,2,0.896,2,2V75z"/>
		</g>
		<g>
			<path style="fill:#FFE9A1;" d="M75,45c0,3.314-2.686,6-6,6H37c-1.104,0-2-0.896-2-2V29c0-1.104,0.896-2,2-2h36
				c1.104,0,2,0.896,2,2V45z"/>
		</g>
		<g>
			<circle style="fill:#FA9200;" cx="72.5" cy="64.5" r="2.5"/>
		</g>
		<g>
			<rect x="42" y="31" style="fill:#FA9200;" width="27" height="16"/>
		</g>
		<g>
			<circle style="fill:#66510D;" cx="39" cy="35" r="1"/>
		</g>
		<g>
			<path style="fill:#FFAA00;" d="M53,60.667c0-0.552-0.448-1-1-1h-2.667c-0.552,0-1-0.448-1-1V56c0-0.552-0.448-1-1-1h-2.667
				c-0.552,0-1,0.448-1,1v2.667c0,0.552-0.448,1-1,1H40c-0.552,0-1,0.448-1,1v2.667c0,0.552,0.448,1,1,1h2.667c0.552,0,1,0.448,1,1
				V68c0,0.552,0.448,1,1,1h2.667c0.552,0,1-0.448,1-1v-2.666c0-0.552,0.448-1,1-1H52c0.552,0,1-0.448,1-1V60.667z"/>
		</g>
		<g>
			<circle style="fill:#FA9200;" cx="64.5" cy="68.5" r="2.5"/>
		</g>
		<g>
			<g>
				<path style="fill:#FFE9A1;" d="M50.492,79.462c-0.32-0.639-0.06-1.417,0.579-1.736l5.177-2.589
					c0.639-0.32,1.417-0.06,1.737,0.579c0.32,0.64,0.06,1.417-0.579,1.736l-5.177,2.589C51.591,80.36,50.812,80.103,50.492,79.462z"
					/>
			</g>
		</g>
		<g>
			<g>
				<path style="fill:#FFE9A1;" d="M40.137,79.462c-0.32-0.639-0.06-1.417,0.579-1.736l5.177-2.589
					c0.639-0.32,1.417-0.06,1.737,0.579c0.32,0.64,0.061,1.417-0.579,1.736l-5.178,2.589C41.236,80.36,40.457,80.103,40.137,79.462z
					"/>
			</g>
		</g>
		<g>
			<polygon style="fill:#FFAA00;" points="42,31 42,47 46.163,47 62.163,31 			"/>
		</g>
	</g>
</g>
</svg>
