<?xml version="1.0" encoding="iso-8859-1"?>
<!-- Generator: Adobe Illustrator 17.1.0, SVG Export Plug-In . SVG Version: 6.00 Build 0)  -->
<!DOCTYPE svg PUBLIC "-//W3C//DTD SVG 1.0//EN" "http://www.w3.org/TR/2001/REC-SVG-20010904/DTD/svg10.dtd">
<svg version="1.0" xmlns="http://www.w3.org/2000/svg" xmlns:xlink="http://www.w3.org/1999/xlink" x="0px" y="0px" width="110px"
	 height="110px" viewBox="0 0 110 110" style="enable-background:new 0 0 110 110;" xml:space="preserve">
<g id="Artboard" style="display:none;">
	<rect x="-831" y="-39" style="display:inline;fill:#808080;" width="1385" height="322"/>
</g>
<g id="R-Multicolor" style="display:none;">
	<circle style="display:inline;fill:#FABC3D;" cx="55" cy="55" r="55"/>
	<g style="display:inline;">
		<path style="fill:#DF2C2C;" d="M54.98,34.034C47.985,21.793,27,26.165,27,48.024C27.435,67.925,54.98,83,54.98,83
			s27.546-15.075,27.98-34.976C82.961,26.165,61.976,21.793,54.98,34.034z"/>
		<path style="fill:#FA5655;" d="M55.115,33.822c-0.043,0.073-0.092,0.138-0.134,0.212C47.985,21.793,27,26.165,27,48.024
			C27.435,67.925,54.98,83,54.98,83s0.055-0.031,0.134-0.075V33.822z"/>
	</g>
</g>
<g id="Multicolor_1_">
	<g>
		<path style="fill:#DF2C2C;" d="M54.98,34.034C47.985,21.793,27,26.165,27,48.024C27.435,67.925,54.98,83,54.98,83
			s27.546-15.075,27.98-34.976C82.961,26.165,61.976,21.793,54.98,34.034z"/>
		<path style="fill:#FA5655;" d="M55.115,33.822c-0.043,0.073-0.092,0.138-0.134,0.212C47.985,21.793,27,26.165,27,48.024
			C27.435,67.925,54.98,83,54.98,83s0.055-0.031,0.134-0.075V33.822z"/>
	</g>
</g>
<g id="Blue" style="display:none;">
	<g style="display:inline;">
		<g>
			<path style="fill:#E1F5FA;" d="M55.02,34.034c-6.995-12.241-27.98-7.869-27.98,13.99C27.474,67.925,55.02,83,55.02,83
				S82.566,67.925,83,48.024C83,26.165,62.015,21.793,55.02,34.034z"/>
		</g>
		<g>
			<path style="fill:#FFFFFF;" d="M55.154,33.822c-0.043,0.073-0.092,0.139-0.134,0.212c-6.995-12.241-27.98-7.869-27.98,13.99
				C27.474,67.925,55.02,83,55.02,83s0.055-0.03,0.134-0.075V33.822z"/>
		</g>
	</g>
</g>
<g id="R-Blue" style="display:none;">
	<g style="display:inline;">
		<circle style="fill:#81D2EB;" cx="55" cy="55" r="55"/>
	</g>
	<g style="display:inline;">
		<g>
			<path style="fill:#E1F5FA;" d="M54.98,34.034C47.985,21.793,27,26.165,27,48.024C27.435,67.925,54.98,83,54.98,83
				s27.546-15.075,27.98-34.976C82.961,26.165,61.976,21.793,54.98,34.034z"/>
		</g>
		<g>
			<path style="fill:#FFFFFF;" d="M55.115,33.822c-0.043,0.073-0.092,0.139-0.134,0.212C47.985,21.793,27,26.165,27,48.024
				C27.435,67.925,54.98,83,54.98,83s0.055-0.03,0.134-0.075V33.822z"/>
		</g>
	</g>
</g>
<g id="Green" style="display:none;">
	<g style="display:inline;">
		<g>
			<path style="fill:#D7FCF9;" d="M55.02,34.034c-6.995-12.241-27.98-7.869-27.98,13.99C27.474,67.925,55.02,83,55.02,83
				S82.566,67.925,83,48.024C83,26.165,62.015,21.793,55.02,34.034z"/>
		</g>
		<g>
			<path style="fill:#FFFFFF;" d="M55.154,33.822c-0.043,0.073-0.092,0.139-0.134,0.212c-6.995-12.241-27.98-7.869-27.98,13.99
				C27.474,67.925,55.02,83,55.02,83s0.055-0.03,0.134-0.075V33.822z"/>
		</g>
	</g>
</g>
<g id="R-Green" style="display:none;">
	<g style="display:inline;">
		<circle style="fill:#87E0C8;" cx="55" cy="55" r="55"/>
	</g>
	<g style="display:inline;">
		<g>
			<path style="fill:#D7FCF9;" d="M54.98,34.034C47.985,21.793,27,26.165,27,48.024C27.435,67.925,54.98,83,54.98,83
				s27.546-15.075,27.98-34.976C82.961,26.165,61.976,21.793,54.98,34.034z"/>
		</g>
		<g>
			<path style="fill:#FFFFFF;" d="M55.115,33.822c-0.043,0.073-0.092,0.139-0.134,0.212C47.985,21.793,27,26.165,27,48.024
				C27.435,67.925,54.98,83,54.98,83s0.055-0.03,0.134-0.075V33.822z"/>
		</g>
	</g>
</g>
<g id="Red" style="display:none;">
	<g style="display:inline;">
		<g>
			<path style="fill:#FFEFED;" d="M54.98,34.034C47.985,21.793,27,26.165,27,48.024C27.435,67.925,54.98,83,54.98,83
				s27.546-15.075,27.98-34.976C82.961,26.165,61.976,21.793,54.98,34.034z"/>
		</g>
		<g>
			<path style="fill:#FFFFFF;" d="M55.115,33.822c-0.043,0.073-0.092,0.139-0.134,0.212C47.985,21.793,27,26.165,27,48.024
				C27.435,67.925,54.98,83,54.98,83s0.055-0.03,0.134-0.075V33.822z"/>
		</g>
	</g>
</g>
<g id="R-Red" style="display:none;">
	<g style="display:inline;">
		<circle style="fill:#FABBAF;" cx="55" cy="55" r="55"/>
	</g>
	<g style="display:inline;">
		<g>
			<path style="fill:#FFEFED;" d="M54.98,34.034C47.985,21.793,27,26.165,27,48.024C27.435,67.925,54.98,83,54.98,83
				s27.546-15.075,27.98-34.976C82.961,26.165,61.976,21.793,54.98,34.034z"/>
		</g>
		<g>
			<path style="fill:#FFFFFF;" d="M55.115,33.822c-0.043,0.073-0.092,0.139-0.134,0.212C47.985,21.793,27,26.165,27,48.024
				C27.435,67.925,54.98,83,54.98,83s0.055-0.03,0.134-0.075V33.822z"/>
		</g>
	</g>
</g>
<g id="Yellow" style="display:none;">
	<g style="display:inline;">
		<g>
			<path style="fill:#FFF5D9;" d="M54.98,34.034C47.985,21.793,27,26.165,27,48.024C27.435,67.925,54.98,83,54.98,83
				s27.546-15.075,27.98-34.976C82.961,26.165,61.976,21.793,54.98,34.034z"/>
		</g>
		<g>
			<path style="fill:#FFFFFF;" d="M55.115,33.822c-0.043,0.073-0.092,0.139-0.134,0.212C47.985,21.793,27,26.165,27,48.024
				C27.435,67.925,54.98,83,54.98,83s0.055-0.03,0.134-0.075V33.822z"/>
		</g>
	</g>
</g>
<g id="R-Yellow" style="display:none;">
	<g style="display:inline;">
		<circle style="fill:#FFD75E;" cx="55" cy="55" r="55"/>
	</g>
	<g style="display:inline;">
		<g>
			<path style="fill:#FFF5D9;" d="M54.98,34.034C47.985,21.793,27,26.165,27,48.024C27.435,67.925,54.98,83,54.98,83
				s27.546-15.075,27.98-34.976C82.961,26.165,61.976,21.793,54.98,34.034z"/>
		</g>
		<g>
			<path style="fill:#FFFFFF;" d="M55.115,33.822c-0.043,0.073-0.092,0.139-0.134,0.212C47.985,21.793,27,26.165,27,48.024
				C27.435,67.925,54.98,83,54.98,83s0.055-0.03,0.134-0.075V33.822z"/>
		</g>
	</g>
</g>
</svg>
