<?xml version="1.0" encoding="UTF-8" standalone="no"?>
<svg width="240px" height="81px" viewBox="0 0 240 81" version="1.1" xmlns="http://www.w3.org/2000/svg" xmlns:xlink="http://www.w3.org/1999/xlink" xmlns:sketch="http://www.bohemiancoding.com/sketch/ns">
    <!-- Generator: Sketch 3.2.2 (9983) - http://www.bohemiancoding.com/sketch -->
    <title>pie</title>
    <desc>Created with Sketch.</desc>
    <defs></defs>
    <g id="Page-1" stroke="none" stroke-width="1" fill="none" fill-rule="evenodd" sketch:type="MSPage">
        <g id="pie" sketch:type="MSLayerGroup" transform="translate(0.000000, -10.000000)">
            <g id="Main" sketch:type="MSShapeGroup">
                <g id="Profile-6">
                    <g id="Tile-3">
                        <g id="pie">
                            <rect id="Rectangle-264" fill="#F0C233" x="0" y="0" width="240" height="120"></rect>
                            <rect id="Rectangle-346" fill="#E6B319" x="0" y="86" width="240" height="34"></rect>
                            <g id="Group" transform="translate(86.000000, 23.000000)">
                                <path d="M4.9487,41.1543 C7.7987,42.1043 10.4437,41.2163 13.2447,40.2753 C15.1137,39.6483 17.0437,39.0003 18.9997,39.0003 C21.4077,39.0003 23.3927,39.9573 25.3127,40.8833 C27.4697,41.9243 29.6987,43.0003 32.9997,43.0003 C36.3007,43.0003 38.5307,41.9243 40.6877,40.8833 C42.6067,39.9573 44.5927,39.0003 46.9997,39.0003 C48.9557,39.0003 50.8867,39.6483 52.7547,40.2753 C55.5557,41.2163 58.2017,42.1033 61.0517,41.1543 C61.5097,41.0013 61.9757,40.9773 62.4227,41.0413 C56.5487,30.8643 45.5777,24.0003 32.9817,24.0003 C20.3837,24.0003 9.4097,30.8673 3.5367,41.0493 C3.9967,40.9763 4.4767,40.9963 4.9487,41.1543" id="Fill-6308" fill="#F9E1C2"></path>
                                <path d="M32.9819,24 C20.3839,24 9.4099,30.867 3.5369,41.049 C3.9969,40.976 4.4769,40.997 4.9489,41.154 C7.7989,42.104 10.4439,41.216 13.2449,40.275 C15.1129,39.648 17.0439,39 18.9999,39 C21.4079,39 23.3929,39.958 25.3129,40.884 C27.4689,41.924 29.6989,43 32.9999,43 L32.9999,24 L32.9819,24" id="Fill-6309" fill="#FCF1E2"></path>
                                <path d="M50.8452,45.9634 C49.3692,45.4674 47.9752,45.0004 47.0002,45.0004 C45.9642,45.0004 44.7862,45.5684 43.2942,46.2874 C40.7902,47.4964 37.6722,49.0004 33.0002,49.0004 C28.3272,49.0004 25.2102,47.4964 22.7052,46.2874 C21.2142,45.5684 20.0362,45.0004 19.0002,45.0004 C18.0242,45.0004 16.6302,45.4674 15.1552,45.9634 C12.7982,46.7544 10.0242,47.6784 6.8842,47.5474 L9.0892,59.1224 C9.6282,61.9524 12.1022,64.0004 14.9832,64.0004 L50.2792,64.0004 C53.0572,64.0004 55.4722,62.0924 56.1162,59.3894 L58.9332,47.5554 C55.8672,47.6444 53.1562,46.7384 50.8452,45.9634" id="Fill-6310" fill="#8E6134"></path>
                                <path d="M33,49 C28.328,49 25.21,47.496 22.705,46.288 C21.214,45.568 20.036,45 19,45 C18.024,45 16.63,45.468 15.155,45.963 C11.88,47.063 7.805,48.43 3.051,46.846 C1.479,46.322 0.63,44.623 1.154,43.051 C1.678,41.479 3.377,40.629 4.949,41.154 C7.799,42.104 10.444,41.216 13.245,40.275 C15.113,39.648 17.044,39 19,39 C21.408,39 23.393,39.958 25.313,40.884 C27.469,41.924 29.699,43 33,43 C36.301,43 38.531,41.924 40.687,40.884 C42.607,39.958 44.592,39 47,39 C48.956,39 50.887,39.648 52.755,40.275 C55.556,41.216 58.202,42.103 61.051,41.154 C62.623,40.629 64.322,41.479 64.846,43.051 C65.37,44.623 64.521,46.322 62.949,46.846 C58.194,48.431 54.12,47.062 50.845,45.963 C49.37,45.468 47.976,45 47,45 C45.964,45 44.786,45.568 43.295,46.288 C40.79,47.496 37.672,49 33,49" id="Fill-6311" fill="#D4A263"></path>
                                <path d="M35,32.5 C35,33.881 34.104,35 33,35 C31.896,35 31,33.881 31,32.5 C31,31.119 33,28 33,28 C33,28 35,31.119 35,32.5" id="Fill-6312" fill="#EDBC7C"></path>
                                <path d="M45.2288,31.6809 C45.7448,32.9619 45.3318,34.3349 44.3068,34.7469 C43.2818,35.1589 42.0338,34.4549 41.5178,33.1749 C41.0028,31.8939 41.6928,28.2529 41.6928,28.2529 C41.6928,28.2529 44.7128,30.3999 45.2288,31.6809" id="Fill-6313" fill="#EDBC7C"></path>
                                <path d="M20.7712,31.6809 C20.2552,32.9619 20.6682,34.3349 21.6932,34.7469 C22.7182,35.1589 23.9662,34.4549 24.4822,33.1749 C24.9972,31.8939 24.3072,28.2529 24.3072,28.2529 C24.3072,28.2529 21.2872,30.3999 20.7712,31.6809" id="Fill-6314" fill="#EDBC7C"></path>
                                <path d="M32,0 C32,0 35,2 35,6 C35,10 32,16 34,20 C31,20 28,16 28,12 C28,8 32,5 32,0" id="Fill-6315" fill="#FFFFFF"></path>
                                <path d="M41.7749,9 C41.7749,9 43.4249,10.1 43.4249,12.3 C43.4249,14.5 41.7749,17.8 42.8749,20 C41.2249,20 39.5749,17.8 39.5749,15.6 C39.5749,13.4 41.7749,11.75 41.7749,9" id="Fill-6316" fill="#FFFFFF"></path>
                                <path d="M21.2,9 C21.2,9 22.85,10.1 22.85,12.3 C22.85,14.5 21.2,17.8 22.3,20 C20.65,20 19,17.8 19,15.6 C19,13.4 21.2,11.75 21.2,9" id="Fill-6317" fill="#FFFFFF"></path>
                                <path d="M25.3125,40.8838 C23.3925,39.9578 21.4075,38.9998 19.0005,38.9998 C17.0435,38.9998 15.1135,39.6488 13.2455,40.2758 C10.4435,41.2158 7.7985,42.1038 4.9485,41.1548 C3.3765,40.6288 1.6775,41.4798 1.1545,43.0508 C0.6295,44.6228 1.4795,46.3218 3.0515,46.8458 C7.8045,48.4308 11.8795,47.0628 15.1545,45.9638 C16.6305,45.4678 18.0245,44.9998 19.0005,44.9998 C20.0365,44.9998 21.2135,45.5688 22.7055,46.2878 C25.2095,47.4958 28.3275,48.9998 32.9995,48.9998 L32.9995,42.9998 C29.6995,42.9998 27.4695,41.9238 25.3125,40.8838" id="Fill-6318" fill="#EDBC7C"></path>
                                <path d="M33,49 C28.328,49 25.21,47.496 22.705,46.288 C21.214,45.568 20.036,45 19,45 C18.024,45 16.63,45.468 15.155,45.963 C12.798,46.754 10.024,47.679 6.884,47.547 L9.089,59.123 C9.628,61.953 12.102,64 14.983,64 L33,64 L33,49 L33,49 Z" id="Fill-6319" fill="#A97A45"></path>
                            </g>
                        </g>
                    </g>
                </g>
            </g>
        </g>
    </g>
</svg>