<?xml version="1.0" encoding="iso-8859-1"?>
<!-- Generator: Adobe Illustrator 17.1.0, SVG Export Plug-In . SVG Version: 6.00 Build 0)  -->
<!DOCTYPE svg PUBLIC "-//W3C//DTD SVG 1.0//EN" "http://www.w3.org/TR/2001/REC-SVG-20010904/DTD/svg10.dtd">
<svg version="1.0" xmlns="http://www.w3.org/2000/svg" xmlns:xlink="http://www.w3.org/1999/xlink" x="0px" y="0px" width="110px"
	 height="110px" viewBox="0 0 110 110" style="enable-background:new 0 0 110 110;" xml:space="preserve">
<g id="Artboard" style="display:none;">
	<rect x="-49.5" y="-304.5" style="display:inline;fill:#808080;stroke:#000000;stroke-miterlimit:10;" width="1362" height="598"/>
</g>
<g id="R-Multicolor" style="display:none;">
	<g style="display:inline;">
		<circle style="fill:#FABC3D;" cx="55" cy="55" r="55"/>
	</g>
	<g style="display:inline;">
		<path style="fill:#3E3E3F;" d="M71.633,71.296c-1.999-6.127-2.01-13.817-1.829-17.955c-0.535,0.476-1.187,0.817-1.982,0.955
			c-1.223,4.559-3.283,7.697-5.613,9.887c0.136,1.674,0.421,3.406,0.926,5.087L71.633,71.296z"/>
		<path style="fill:#F79392;" d="M83.409,77.663c-0.889-2.311-2.797-4.08-5.168-4.791L62,69l-7,1l-7-1l-16.241,3.872
			c-2.371,0.711-4.279,2.48-5.168,4.791L23,87h32h32L83.409,77.663z"/>
		<path style="fill:#F4D0A1;" d="M65,67v-6.196c-2.841,4.396-6.716,6.473-10,7.567c-3.281-1.094-7.158-3.157-10-7.544V67
			c0,1,4.465,15.849,10,20C60.536,82.849,65,68,65,67z"/>
		<path style="fill:#F8E1C2;" d="M70,44.371c-0.277,0-0.633,0-1,0c0-0.007,0-0.014,0-0.021c-0.018-9.008-1.024-16.979-14-16.979l0,0
			c-12.976,0-13.982,7.971-14,16.979c0,16.798,8,22.021,14,24.021l0,0c4.604-1.535,10.38-4.973,12.822-14.075
			C71.136,53.724,72,49.684,72,46.593C72,45.482,71,44.371,70,44.371z"/>
		<g>
			<path style="fill:#FCF1E2;" d="M55,27.371c-12.976,0-13.982,7.971-14,16.979c0,16.798,8,22.021,14,24.021V27.371z"/>
		</g>
		<g>
			<path style="fill:#3E3E3F;" d="M61,27.371c1,14,4,16.979,9,17C70.04,38.352,73.669,26.692,61,27.371z"/>
		</g>
		<g>
			<g>
				<path style="fill:#3E3E3F;" d="M48.964,45.866c1.43,0,2.627,0.277,2.959,1.134c0.004-1-1.003-2.446-2.959-2.446
					c-1.953,0-3.053,1.446-2.959,2.446C46.337,46.144,47.534,45.866,48.964,45.866z"/>
			</g>
		</g>
		<g>
			<g>
				<path style="fill:#3E3E3F;" d="M60.887,45.866c1.43,0,2.627,0.277,2.959,1.134c0.004-1-1.003-2.446-2.959-2.446
					c-1.953,0-3.053,1.446-2.959,2.446C58.26,46.144,59.457,45.866,60.887,45.866z"/>
			</g>
		</g>
		<g>
			<path style="fill:#F79392;" d="M50,57.371h10c0,0,0,3-5,3S50,57.371,50,57.371z"/>
		</g>
		<g>
			<path style="fill:#FFFFFF;" d="M45,67c0,0-7,2-8,7c5,0,15,13,15,13h3C49.465,82.849,45,68,45,67z"/>
			<path style="fill:#FFFFFF;" d="M65,67c0,1-4.464,15.849-10,20h3c0,0,10-13,15-13C72,69,65,67,65,67z"/>
		</g>
		<path style="fill:#F8E1C2;" d="M47.768,64.149c-0.292,2.603-0.849,4.951-1.577,7.055C47.877,76.192,51.184,84.138,55,87V68.371
			C52.066,67.394,49.69,65.963,47.768,64.149z"/>
		<g>
			<path style="fill:#3E3E3F;" d="M35,41c0,2,0,45,0,45s13-7.629,13-25.922V44.371c0-15.988,14-8,13-17C56,18.371,35,23,35,41z"/>
		</g>
	</g>
</g>
<g id="Multicolor">
	<g>
		<path style="fill:#3E3E3F;" d="M71.633,71.296c-1.999-6.127-2.01-13.817-1.829-17.955c-0.535,0.476-1.187,0.817-1.982,0.955
			c-1.223,4.559-3.283,7.697-5.613,9.887c0.136,1.674,0.421,3.406,0.926,5.087L71.633,71.296z"/>
		<path style="fill:#F79392;" d="M83.409,77.663c-0.889-2.311-2.797-4.08-5.168-4.791L62,69l-7,1l-7-1l-16.241,3.872
			c-2.371,0.711-4.279,2.48-5.168,4.791L23,87h32h32L83.409,77.663z"/>
		<path style="fill:#F4D0A1;" d="M65,67v-6.196c-2.841,4.396-6.716,6.473-10,7.567c-3.281-1.094-7.158-3.157-10-7.544V67
			c0,1,4.465,15.849,10,20C60.536,82.849,65,68,65,67z"/>
		<path style="fill:#F8E1C2;" d="M70,44.371c-0.277,0-0.633,0-1,0c0-0.007,0-0.014,0-0.021c-0.018-9.008-1.024-16.979-14-16.979l0,0
			c-12.976,0-13.982,7.971-14,16.979c0,16.798,8,22.021,14,24.021l0,0c4.604-1.535,10.38-4.973,12.822-14.075
			C71.136,53.724,72,49.684,72,46.593C72,45.482,71,44.371,70,44.371z"/>
		<g>
			<path style="fill:#FCF1E2;" d="M55,27.371c-12.976,0-13.982,7.971-14,16.979c0,16.798,8,22.021,14,24.021V27.371z"/>
		</g>
		<g>
			<path style="fill:#3E3E3F;" d="M61,27.371c1,14,4,16.979,9,17C70.04,38.352,73.669,26.692,61,27.371z"/>
		</g>
		<g>
			<g>
				<path style="fill:#3E3E3F;" d="M48.964,45.866c1.43,0,2.627,0.277,2.959,1.134c0.004-1-1.003-2.446-2.959-2.446
					c-1.953,0-3.053,1.446-2.959,2.446C46.337,46.144,47.534,45.866,48.964,45.866z"/>
			</g>
		</g>
		<g>
			<g>
				<path style="fill:#3E3E3F;" d="M60.887,45.866c1.43,0,2.627,0.277,2.959,1.134c0.004-1-1.003-2.446-2.959-2.446
					c-1.953,0-3.053,1.446-2.959,2.446C58.26,46.144,59.457,45.866,60.887,45.866z"/>
			</g>
		</g>
		<g>
			<path style="fill:#F79392;" d="M50,57.371h10c0,0,0,3-5,3S50,57.371,50,57.371z"/>
		</g>
		<g>
			<path style="fill:#FFFFFF;" d="M45,67c0,0-7,2-8,7c5,0,15,13,15,13h3C49.465,82.849,45,68,45,67z"/>
			<path style="fill:#FFFFFF;" d="M65,67c0,1-4.464,15.849-10,20h3c0,0,10-13,15-13C72,69,65,67,65,67z"/>
		</g>
		<path style="fill:#F8E1C2;" d="M47.768,64.149c-0.292,2.603-0.849,4.951-1.577,7.055C47.877,76.192,51.184,84.138,55,87V68.371
			C52.066,67.394,49.69,65.963,47.768,64.149z"/>
		<g>
			<path style="fill:#3E3E3F;" d="M35,41c0,2,0,45,0,45s13-7.629,13-25.922V44.371c0-15.988,14-8,13-17C56,18.371,35,23,35,41z"/>
		</g>
	</g>
</g>
<g id="Blue" style="display:none;">
	<g style="display:inline;">
		<path style="fill:#0C333D;" d="M71.633,71.296c-1.998-6.128-2.01-13.817-1.829-17.955c-0.535,0.476-1.187,0.817-1.982,0.955
			c-1.223,4.559-3.283,7.697-5.613,9.887c0.136,1.674,0.421,3.406,0.926,5.087L71.633,71.296z"/>
		<path style="fill:#009FC7;" d="M83.409,77.663c-0.889-2.311-2.797-4.08-5.168-4.791L62,69l-7,1l-7-1l-16.241,3.872
			c-2.371,0.711-4.279,2.48-5.168,4.791L23,87h32h32L83.409,77.663z"/>
		<path style="fill:#BBE7F2;" d="M65,67v-6.196c-2.841,4.397-6.716,6.473-10,7.567c-3.281-1.094-7.158-3.157-10-7.544V67
			c0,1,4.465,15.849,10,20C60.536,82.849,65,68,65,67z"/>
		<path style="fill:#E1F5FA;" d="M70,44.371c-0.277,0-0.633,0-1.001,0c0-0.007,0.001-0.014,0.001-0.021
			c-0.018-9.008-1.024-16.979-14-16.979l0,0c-12.976,0-13.982,7.971-14,16.979c0,16.798,8,22.021,14,24.021l0,0
			c4.604-1.535,10.38-4.973,12.822-14.075C71.136,53.724,72,49.684,72,46.593C72,45.482,71,44.371,70,44.371z"/>
		<g>
			<path style="fill:#FFFFFF;" d="M55,27.372c-12.976,0-13.982,7.97-14,16.979c0,16.798,8,22.021,14,24.021V27.372z"/>
		</g>
		<g>
			<path style="fill:#0C333D;" d="M61,27.372c1,14,4,16.979,9,17C70.04,38.352,73.669,26.693,61,27.372z"/>
		</g>
		<g>
			<g>
				<path style="fill:#0C333D;" d="M48.964,45.866c1.431,0,2.627,0.277,2.959,1.134c0.004-1-1.004-2.446-2.959-2.446
					c-1.953,0-3.052,1.446-2.958,2.446C46.337,46.144,47.534,45.866,48.964,45.866z"/>
			</g>
		</g>
		<g>
			<g>
				<path style="fill:#0C333D;" d="M60.887,45.866c1.431,0,2.627,0.277,2.958,1.134c0.005-1-1.003-2.446-2.958-2.446
					c-1.953,0-3.053,1.446-2.958,2.446C58.26,46.144,59.457,45.866,60.887,45.866z"/>
			</g>
		</g>
		<g>
			<path style="fill:#53BAD4;" d="M50,57.372h10c0,0,0,3-5,3S50,57.372,50,57.372z"/>
		</g>
		<g>
			<path style="fill:#FFFFFF;" d="M45,67c0,0-7,2-8,7c5,0,15,13,15,13h3C49.465,82.849,45,68,45,67z"/>
			<path style="fill:#FFFFFF;" d="M65,67c0,1-4.464,15.849-10,20h3c0,0,10-13,15-13C72,69,65,67,65,67z"/>
		</g>
		<path style="fill:#E1F5FA;" d="M47.768,64.149c-0.292,2.603-0.849,4.951-1.577,7.055C47.876,76.192,51.184,84.138,55,87V68.371
			C52.066,67.394,49.69,65.963,47.768,64.149z"/>
		<g>
			<path style="fill:#0C333D;" d="M35,41c0,2,0,45,0,45s13-7.628,13-25.922V44.372c0-15.988,14-8,13-17C56,18.372,35,23,35,41z"/>
		</g>
	</g>
</g>
<g id="R-Blue" style="display:none;">
	<g style="display:inline;">
		<circle style="fill:#81D2EB;" cx="55" cy="55" r="55"/>
	</g>
	<g style="display:inline;">
		<path style="fill:#0C333D;" d="M71.633,71.296c-1.998-6.128-2.01-13.817-1.829-17.955c-0.535,0.476-1.187,0.817-1.982,0.955
			c-1.223,4.559-3.283,7.697-5.613,9.887c0.136,1.674,0.421,3.406,0.926,5.087L71.633,71.296z"/>
		<path style="fill:#009FC7;" d="M83.409,77.663c-0.889-2.311-2.797-4.08-5.168-4.791L62,69l-7,1l-7-1l-16.241,3.872
			c-2.371,0.711-4.279,2.48-5.168,4.791L23,87h32h32L83.409,77.663z"/>
		<path style="fill:#BBE7F2;" d="M65,67v-6.196c-2.841,4.397-6.716,6.473-10,7.567c-3.281-1.094-7.158-3.157-10-7.544V67
			c0,1,4.465,15.849,10,20C60.536,82.849,65,68,65,67z"/>
		<path style="fill:#E1F5FA;" d="M70,44.371c-0.277,0-0.633,0-1.001,0c0-0.007,0.001-0.014,0.001-0.021
			c-0.018-9.008-1.024-16.979-14-16.979l0,0c-12.976,0-13.982,7.971-14,16.979c0,16.798,8,22.021,14,24.021l0,0
			c4.604-1.535,10.38-4.973,12.822-14.075C71.136,53.724,72,49.684,72,46.593C72,45.482,71,44.371,70,44.371z"/>
		<g>
			<path style="fill:#FFFFFF;" d="M55,27.372c-12.976,0-13.982,7.97-14,16.979c0,16.798,8,22.021,14,24.021V27.372z"/>
		</g>
		<g>
			<path style="fill:#0C333D;" d="M61,27.372c1,14,4,16.979,9,17C70.04,38.352,73.669,26.693,61,27.372z"/>
		</g>
		<g>
			<g>
				<path style="fill:#0C333D;" d="M48.964,45.866c1.431,0,2.627,0.277,2.959,1.134c0.004-1-1.004-2.446-2.959-2.446
					c-1.953,0-3.052,1.446-2.958,2.446C46.337,46.144,47.534,45.866,48.964,45.866z"/>
			</g>
		</g>
		<g>
			<g>
				<path style="fill:#0C333D;" d="M60.887,45.866c1.431,0,2.627,0.277,2.958,1.134c0.005-1-1.003-2.446-2.958-2.446
					c-1.953,0-3.053,1.446-2.958,2.446C58.26,46.144,59.457,45.866,60.887,45.866z"/>
			</g>
		</g>
		<g>
			<path style="fill:#53BAD4;" d="M50,57.372h10c0,0,0,3-5,3S50,57.372,50,57.372z"/>
		</g>
		<g>
			<path style="fill:#FFFFFF;" d="M45,67c0,0-7,2-8,7c5,0,15,13,15,13h3C49.465,82.849,45,68,45,67z"/>
			<path style="fill:#FFFFFF;" d="M65,67c0,1-4.464,15.849-10,20h3c0,0,10-13,15-13C72,69,65,67,65,67z"/>
		</g>
		<path style="fill:#E1F5FA;" d="M47.768,64.149c-0.292,2.603-0.849,4.951-1.577,7.055C47.876,76.192,51.184,84.138,55,87V68.371
			C52.066,67.394,49.69,65.963,47.768,64.149z"/>
		<g>
			<path style="fill:#0C333D;" d="M35,41c0,2,0,45,0,45s13-7.628,13-25.922V44.372c0-15.988,14-8,13-17C56,18.372,35,23,35,41z"/>
		</g>
	</g>
</g>
<g id="Green" style="display:none;">
	<g style="display:inline;">
		<path style="fill:#0A3631;" d="M71.633,71.296c-1.998-6.128-2.01-13.817-1.829-17.955c-0.535,0.476-1.187,0.817-1.982,0.955
			c-1.223,4.559-3.283,7.697-5.613,9.887c0.136,1.674,0.421,3.406,0.926,5.087L71.633,71.296z"/>
		<path style="fill:#00B8A5;" d="M83.409,77.663c-0.889-2.311-2.797-4.08-5.168-4.791L62,69l-7,1l-7-1l-16.241,3.872
			c-2.371,0.711-4.279,2.48-5.168,4.791L23,87h32h32L83.409,77.663z"/>
		<path style="fill:#AAF0E9;" d="M65,67v-6.196c-2.841,4.397-6.716,6.473-10,7.567c-3.281-1.094-7.158-3.157-10-7.544V67
			c0,1,4.465,15.849,10,20C60.536,82.849,65,68,65,67z"/>
		<path style="fill:#D7FCF9;" d="M70,44.371c-0.277,0-0.633,0-1.001,0c0-0.007,0.001-0.014,0.001-0.021
			c-0.018-9.008-1.024-16.979-14-16.979l0,0c-12.976,0-13.982,7.971-14,16.979c0,16.798,8,22.021,14,24.021l0,0
			c4.604-1.535,10.38-4.973,12.822-14.075C71.136,53.724,72,49.684,72,46.593C72,45.482,71,44.371,70,44.371z"/>
		<g>
			<path style="fill:#FFFFFF;" d="M55,27.372c-12.976,0-13.982,7.97-14,16.979c0,16.798,8,22.021,14,24.021V27.372z"/>
		</g>
		<g>
			<path style="fill:#0A3631;" d="M61,27.372c1,14,4,16.979,9,17C70.04,38.352,73.669,26.693,61,27.372z"/>
		</g>
		<g>
			<g>
				<path style="fill:#0A3631;" d="M48.964,45.866c1.431,0,2.627,0.277,2.959,1.134c0.004-1-1.004-2.446-2.959-2.446
					c-1.953,0-3.052,1.446-2.958,2.446C46.337,46.144,47.534,45.866,48.964,45.866z"/>
			</g>
		</g>
		<g>
			<g>
				<path style="fill:#0A3631;" d="M60.887,45.866c1.431,0,2.627,0.277,2.958,1.134c0.005-1-1.003-2.446-2.958-2.446
					c-1.953,0-3.053,1.446-2.958,2.446C58.26,46.144,59.457,45.866,60.887,45.866z"/>
			</g>
		</g>
		<g>
			<path style="fill:#55C9BE;" d="M50,57.372h10c0,0,0,3-5,3S50,57.372,50,57.372z"/>
		</g>
		<g>
			<path style="fill:#FFFFFF;" d="M45,67c0,0-7,2-8,7c5,0,15,13,15,13h3C49.465,82.849,45,68,45,67z"/>
			<path style="fill:#FFFFFF;" d="M65,67c0,1-4.464,15.849-10,20h3c0,0,10-13,15-13C72,69,65,67,65,67z"/>
		</g>
		<path style="fill:#D7FCF9;" d="M47.768,64.149c-0.292,2.603-0.849,4.951-1.577,7.055C47.876,76.192,51.184,84.138,55,87V68.371
			C52.066,67.394,49.69,65.963,47.768,64.149z"/>
		<g>
			<path style="fill:#0A3631;" d="M35,41c0,2,0,45,0,45s13-7.628,13-25.922V44.372c0-15.988,14-8,13-17C56,18.372,35,23,35,41z"/>
		</g>
	</g>
</g>
<g id="R-Green" style="display:none;">
	<g style="display:inline;">
		<circle style="fill:#77E0C4;" cx="55" cy="55" r="55"/>
	</g>
	<g style="display:inline;">
		<path style="fill:#0A3631;" d="M71.633,71.296c-1.998-6.128-2.01-13.817-1.829-17.955c-0.535,0.476-1.187,0.817-1.982,0.955
			c-1.223,4.559-3.283,7.697-5.613,9.887c0.136,1.674,0.421,3.406,0.926,5.087L71.633,71.296z"/>
		<path style="fill:#00B8A5;" d="M83.409,77.663c-0.889-2.311-2.797-4.08-5.168-4.791L62,69l-7,1l-7-1l-16.241,3.872
			c-2.371,0.711-4.279,2.48-5.168,4.791L23,87h32h32L83.409,77.663z"/>
		<path style="fill:#AAF0E9;" d="M65,67v-6.196c-2.841,4.397-6.716,6.473-10,7.567c-3.281-1.094-7.158-3.157-10-7.544V67
			c0,1,4.465,15.849,10,20C60.536,82.849,65,68,65,67z"/>
		<path style="fill:#D7FCF9;" d="M70,44.371c-0.277,0-0.633,0-1.001,0c0-0.007,0.001-0.014,0.001-0.021
			c-0.018-9.008-1.024-16.979-14-16.979l0,0c-12.976,0-13.982,7.971-14,16.979c0,16.798,8,22.021,14,24.021l0,0
			c4.604-1.535,10.38-4.973,12.822-14.075C71.136,53.724,72,49.684,72,46.593C72,45.482,71,44.371,70,44.371z"/>
		<g>
			<path style="fill:#FFFFFF;" d="M55,27.372c-12.976,0-13.982,7.97-14,16.979c0,16.798,8,22.021,14,24.021V27.372z"/>
		</g>
		<g>
			<path style="fill:#0A3631;" d="M61,27.372c1,14,4,16.979,9,17C70.04,38.352,73.669,26.693,61,27.372z"/>
		</g>
		<g>
			<g>
				<path style="fill:#0A3631;" d="M48.964,45.866c1.431,0,2.627,0.277,2.959,1.134c0.004-1-1.004-2.446-2.959-2.446
					c-1.953,0-3.052,1.446-2.958,2.446C46.337,46.144,47.534,45.866,48.964,45.866z"/>
			</g>
		</g>
		<g>
			<g>
				<path style="fill:#0A3631;" d="M60.887,45.866c1.431,0,2.627,0.277,2.958,1.134c0.005-1-1.003-2.446-2.958-2.446
					c-1.953,0-3.053,1.446-2.958,2.446C58.26,46.144,59.457,45.866,60.887,45.866z"/>
			</g>
		</g>
		<g>
			<path style="fill:#55C9BE;" d="M50,57.372h10c0,0,0,3-5,3S50,57.372,50,57.372z"/>
		</g>
		<g>
			<path style="fill:#FFFFFF;" d="M45,67c0,0-7,2-8,7c5,0,15,13,15,13h3C49.465,82.849,45,68,45,67z"/>
			<path style="fill:#FFFFFF;" d="M65,67c0,1-4.464,15.849-10,20h3c0,0,10-13,15-13C72,69,65,67,65,67z"/>
		</g>
		<path style="fill:#D7FCF9;" d="M47.768,64.149c-0.292,2.603-0.849,4.951-1.577,7.055C47.876,76.192,51.184,84.138,55,87V68.371
			C52.066,67.394,49.69,65.963,47.768,64.149z"/>
		<g>
			<path style="fill:#0A3631;" d="M35,41c0,2,0,45,0,45s13-7.628,13-25.922V44.372c0-15.988,14-8,13-17C56,18.372,35,23,35,41z"/>
		</g>
	</g>
</g>
<g id="Red" style="display:none;">
	<g style="display:inline;">
		<path style="fill:#4A1410;" d="M71.633,71.296c-1.998-6.128-2.01-13.817-1.829-17.955c-0.535,0.476-1.187,0.817-1.982,0.955
			c-1.223,4.559-3.283,7.697-5.613,9.887c0.136,1.674,0.421,3.406,0.926,5.087L71.633,71.296z"/>
		<path style="fill:#E54B44;" d="M83.409,77.663c-0.889-2.311-2.797-4.08-5.168-4.791L62,69l-7,1l-7-1l-16.241,3.872
			c-2.371,0.711-4.279,2.48-5.168,4.791L23,87h32h32L83.409,77.663z"/>
		<path style="fill:#FFD7D4;" d="M65,67v-6.196c-2.841,4.397-6.716,6.473-10,7.567c-3.281-1.094-7.158-3.157-10-7.544V67
			c0,1,4.465,15.849,10,20C60.536,82.849,65,68,65,67z"/>
		<path style="fill:#FFEFED;" d="M70,44.371c-0.277,0-0.633,0-1.001,0c0-0.007,0.001-0.014,0.001-0.021
			c-0.018-9.008-1.024-16.979-14-16.979l0,0c-12.976,0-13.982,7.971-14,16.979c0,16.798,8,22.021,14,24.021l0,0
			c4.604-1.535,10.38-4.973,12.822-14.075C71.136,53.724,72,49.684,72,46.593C72,45.482,71,44.371,70,44.371z"/>
		<g>
			<path style="fill:#FFFFFF;" d="M55,27.372c-12.976,0-13.982,7.97-14,16.979c0,16.798,8,22.021,14,24.021V27.372z"/>
		</g>
		<g>
			<path style="fill:#4A1410;" d="M61,27.372c1,14,4,16.979,9,17C70.04,38.352,73.669,26.693,61,27.372z"/>
		</g>
		<g>
			<g>
				<path style="fill:#4A1410;" d="M48.964,45.866c1.431,0,2.627,0.277,2.959,1.134c0.004-1-1.004-2.446-2.959-2.446
					c-1.953,0-3.052,1.446-2.958,2.446C46.337,46.144,47.534,45.866,48.964,45.866z"/>
			</g>
		</g>
		<g>
			<g>
				<path style="fill:#4A1410;" d="M60.887,45.866c1.431,0,2.627,0.277,2.958,1.134c0.005-1-1.003-2.446-2.958-2.446
					c-1.953,0-3.053,1.446-2.958,2.446C58.26,46.144,59.457,45.866,60.887,45.866z"/>
			</g>
		</g>
		<g>
			<path style="fill:#E8A099;" d="M50,57.372h10c0,0,0,3-5,3S50,57.372,50,57.372z"/>
		</g>
		<g>
			<path style="fill:#FFFFFF;" d="M45,67c0,0-7,2-8,7c5,0,15,13,15,13h3C49.465,82.849,45,68,45,67z"/>
			<path style="fill:#FFFFFF;" d="M65,67c0,1-4.464,15.849-10,20h3c0,0,10-13,15-13C72,69,65,67,65,67z"/>
		</g>
		<path style="fill:#FFEFED;" d="M47.768,64.149c-0.292,2.603-0.849,4.951-1.577,7.055C47.876,76.192,51.184,84.138,55,87V68.371
			C52.066,67.394,49.69,65.963,47.768,64.149z"/>
		<g>
			<path style="fill:#4A1410;" d="M35,41c0,2,0,45,0,45s13-7.628,13-25.922V44.372c0-15.988,14-8,13-17C56,18.372,35,23,35,41z"/>
		</g>
	</g>
</g>
<g id="R-Red" style="display:none;">
	<g style="display:inline;">
		<circle style="fill:#FABBAF;" cx="55" cy="55" r="55"/>
	</g>
	<g style="display:inline;">
		<path style="fill:#4A1410;" d="M71.633,71.296c-1.998-6.128-2.01-13.817-1.829-17.955c-0.535,0.476-1.187,0.817-1.982,0.955
			c-1.223,4.559-3.283,7.697-5.613,9.887c0.136,1.674,0.421,3.406,0.926,5.087L71.633,71.296z"/>
		<path style="fill:#E54B44;" d="M83.409,77.663c-0.889-2.311-2.797-4.08-5.168-4.791L62,69l-7,1l-7-1l-16.241,3.872
			c-2.371,0.711-4.279,2.48-5.168,4.791L23,87h32h32L83.409,77.663z"/>
		<path style="fill:#FFD7D4;" d="M65,67v-6.196c-2.841,4.397-6.716,6.473-10,7.567c-3.281-1.094-7.158-3.157-10-7.544V67
			c0,1,4.465,15.849,10,20C60.536,82.849,65,68,65,67z"/>
		<path style="fill:#FFEFED;" d="M70,44.371c-0.277,0-0.633,0-1.001,0c0-0.007,0.001-0.014,0.001-0.021
			c-0.018-9.008-1.024-16.979-14-16.979l0,0c-12.976,0-13.982,7.971-14,16.979c0,16.798,8,22.021,14,24.021l0,0
			c4.604-1.535,10.38-4.973,12.822-14.075C71.136,53.724,72,49.684,72,46.593C72,45.482,71,44.371,70,44.371z"/>
		<g>
			<path style="fill:#FFFFFF;" d="M55,27.372c-12.976,0-13.982,7.97-14,16.979c0,16.798,8,22.021,14,24.021V27.372z"/>
		</g>
		<g>
			<path style="fill:#4A1410;" d="M61,27.372c1,14,4,16.979,9,17C70.04,38.352,73.669,26.693,61,27.372z"/>
		</g>
		<g>
			<g>
				<path style="fill:#4A1410;" d="M48.964,45.866c1.431,0,2.627,0.277,2.959,1.134c0.004-1-1.004-2.446-2.959-2.446
					c-1.953,0-3.052,1.446-2.958,2.446C46.337,46.144,47.534,45.866,48.964,45.866z"/>
			</g>
		</g>
		<g>
			<g>
				<path style="fill:#4A1410;" d="M60.887,45.866c1.431,0,2.627,0.277,2.958,1.134c0.005-1-1.003-2.446-2.958-2.446
					c-1.953,0-3.053,1.446-2.958,2.446C58.26,46.144,59.457,45.866,60.887,45.866z"/>
			</g>
		</g>
		<g>
			<path style="fill:#E8A099;" d="M50,57.372h10c0,0,0,3-5,3S50,57.372,50,57.372z"/>
		</g>
		<g>
			<path style="fill:#FFFFFF;" d="M45,67c0,0-7,2-8,7c5,0,15,13,15,13h3C49.465,82.849,45,68,45,67z"/>
			<path style="fill:#FFFFFF;" d="M65,67c0,1-4.464,15.849-10,20h3c0,0,10-13,15-13C72,69,65,67,65,67z"/>
		</g>
		<path style="fill:#FFEFED;" d="M47.768,64.149c-0.292,2.603-0.849,4.951-1.577,7.055C47.876,76.192,51.184,84.138,55,87V68.371
			C52.066,67.394,49.69,65.963,47.768,64.149z"/>
		<g>
			<path style="fill:#4A1410;" d="M35,41c0,2,0,45,0,45s13-7.628,13-25.922V44.372c0-15.988,14-8,13-17C56,18.372,35,23,35,41z"/>
		</g>
	</g>
</g>
<g id="Yellow" style="display:none;">
	<g style="display:inline;">
		<path style="fill:#3D320C;" d="M71.633,71.296c-1.998-6.128-2.01-13.817-1.829-17.955c-0.535,0.476-1.187,0.817-1.982,0.955
			c-1.223,4.559-3.283,7.697-5.613,9.887c0.136,1.674,0.421,3.406,0.926,5.087L71.633,71.296z"/>
		<path style="fill:#FA9200;" d="M83.409,77.663c-0.889-2.311-2.797-4.08-5.168-4.791L62,69l-7,1l-7-1l-16.241,3.872
			c-2.371,0.711-4.279,2.48-5.168,4.791L23,87h32h32L83.409,77.663z"/>
		<path style="fill:#FFE9A1;" d="M65,67v-6.196c-2.841,4.397-6.716,6.473-10,7.567c-3.281-1.094-7.158-3.157-10-7.544V67
			c0,1,4.465,15.849,10,20C60.536,82.849,65,68,65,67z"/>
		<path style="fill:#FFF5D9;" d="M70,44.371c-0.277,0-0.633,0-1.001,0c0-0.007,0.001-0.014,0.001-0.021
			c-0.018-9.008-1.024-16.979-14-16.979l0,0c-12.976,0-13.982,7.971-14,16.979c0,16.798,8,22.021,14,24.021l0,0
			c4.604-1.535,10.38-4.973,12.822-14.075C71.136,53.724,72,49.684,72,46.593C72,45.482,71,44.371,70,44.371z"/>
		<g>
			<path style="fill:#FFFFFF;" d="M55,27.372c-12.976,0-13.982,7.97-14,16.979c0,16.798,8,22.021,14,24.021V27.372z"/>
		</g>
		<g>
			<path style="fill:#3D320C;" d="M61,27.372c1,14,4,16.979,9,17C70.04,38.352,73.669,26.693,61,27.372z"/>
		</g>
		<g>
			<g>
				<path style="fill:#3D320C;" d="M48.964,45.866c1.431,0,2.627,0.277,2.959,1.134c0.004-1-1.004-2.446-2.959-2.446
					c-1.953,0-3.052,1.446-2.958,2.446C46.337,46.144,47.534,45.866,48.964,45.866z"/>
			</g>
		</g>
		<g>
			<g>
				<path style="fill:#3D320C;" d="M60.887,45.866c1.431,0,2.627,0.277,2.958,1.134c0.005-1-1.003-2.446-2.958-2.446
					c-1.953,0-3.053,1.446-2.958,2.446C58.26,46.144,59.457,45.866,60.887,45.866z"/>
			</g>
		</g>
		<g>
			<path style="fill:#F5C43D;" d="M50,57.372h10c0,0,0,3-5,3S50,57.372,50,57.372z"/>
		</g>
		<g>
			<path style="fill:#FFFFFF;" d="M45,67c0,0-7,2-8,7c5,0,15,13,15,13h3C49.465,82.849,45,68,45,67z"/>
			<path style="fill:#FFFFFF;" d="M65,67c0,1-4.464,15.849-10,20h3c0,0,10-13,15-13C72,69,65,67,65,67z"/>
		</g>
		<path style="fill:#FFF5D9;" d="M47.768,64.149c-0.292,2.603-0.849,4.951-1.577,7.055C47.876,76.192,51.184,84.138,55,87V68.371
			C52.066,67.394,49.69,65.963,47.768,64.149z"/>
		<g>
			<path style="fill:#3D320C;" d="M35,41c0,2,0,45,0,45s13-7.628,13-25.922V44.372c0-15.988,14-8,13-17C56,18.372,35,23,35,41z"/>
		</g>
	</g>
</g>
<g id="R-Yellow" style="display:none;">
	<g style="display:inline;">
		<circle style="fill:#FFD75E;" cx="55" cy="55" r="55"/>
	</g>
	<g style="display:inline;">
		<path style="fill:#3D320C;" d="M71.633,71.296c-1.998-6.128-2.01-13.817-1.829-17.955c-0.535,0.476-1.187,0.817-1.982,0.955
			c-1.223,4.559-3.283,7.697-5.613,9.887c0.136,1.674,0.421,3.406,0.926,5.087L71.633,71.296z"/>
		<path style="fill:#FA9200;" d="M83.409,77.663c-0.889-2.311-2.797-4.08-5.168-4.791L62,69l-7,1l-7-1l-16.241,3.872
			c-2.371,0.711-4.279,2.48-5.168,4.791L23,87h32h32L83.409,77.663z"/>
		<path style="fill:#FFE9A1;" d="M65,67v-6.196c-2.841,4.397-6.716,6.473-10,7.567c-3.281-1.094-7.158-3.157-10-7.544V67
			c0,1,4.465,15.849,10,20C60.536,82.849,65,68,65,67z"/>
		<path style="fill:#FFF5D9;" d="M70,44.371c-0.277,0-0.633,0-1.001,0c0-0.007,0.001-0.014,0.001-0.021
			c-0.018-9.008-1.024-16.979-14-16.979l0,0c-12.976,0-13.982,7.971-14,16.979c0,16.798,8,22.021,14,24.021l0,0
			c4.604-1.535,10.38-4.973,12.822-14.075C71.136,53.724,72,49.684,72,46.593C72,45.482,71,44.371,70,44.371z"/>
		<g>
			<path style="fill:#FFFFFF;" d="M55,27.372c-12.976,0-13.982,7.97-14,16.979c0,16.798,8,22.021,14,24.021V27.372z"/>
		</g>
		<g>
			<path style="fill:#3D320C;" d="M61,27.372c1,14,4,16.979,9,17C70.04,38.352,73.669,26.693,61,27.372z"/>
		</g>
		<g>
			<g>
				<path style="fill:#3D320C;" d="M48.964,45.866c1.431,0,2.627,0.277,2.959,1.134c0.004-1-1.004-2.446-2.959-2.446
					c-1.953,0-3.052,1.446-2.958,2.446C46.337,46.144,47.534,45.866,48.964,45.866z"/>
			</g>
		</g>
		<g>
			<g>
				<path style="fill:#3D320C;" d="M60.887,45.866c1.431,0,2.627,0.277,2.958,1.134c0.005-1-1.003-2.446-2.958-2.446
					c-1.953,0-3.053,1.446-2.958,2.446C58.26,46.144,59.457,45.866,60.887,45.866z"/>
			</g>
		</g>
		<g>
			<path style="fill:#F5C43D;" d="M50,57.372h10c0,0,0,3-5,3S50,57.372,50,57.372z"/>
		</g>
		<g>
			<path style="fill:#FFFFFF;" d="M45,67c0,0-7,2-8,7c5,0,15,13,15,13h3C49.465,82.849,45,68,45,67z"/>
			<path style="fill:#FFFFFF;" d="M65,67c0,1-4.464,15.849-10,20h3c0,0,10-13,15-13C72,69,65,67,65,67z"/>
		</g>
		<path style="fill:#FFF5D9;" d="M47.768,64.149c-0.292,2.603-0.849,4.951-1.577,7.055C47.876,76.192,51.184,84.138,55,87V68.371
			C52.066,67.394,49.69,65.963,47.768,64.149z"/>
		<g>
			<path style="fill:#3D320C;" d="M35,41c0,2,0,45,0,45s13-7.628,13-25.922V44.372c0-15.988,14-8,13-17C56,18.372,35,23,35,41z"/>
		</g>
	</g>
</g>
</svg>
